<svg width="16" height="22" viewBox="0 0 16 22" fill="none" xmlns="http://www.w3.org/2000/svg">
<path d="M14.2391 6.69565H12.3406V4.78261C12.3406 3.51418 11.8405 2.29771 10.9504 1.40079C10.0603 0.503881 8.85302 0 7.5942 0C6.33539 0 5.12813 0.503881 4.23801 1.40079C3.34789 2.29771 2.84783 3.51418 2.84783 4.78261V6.69565H0.949275C0.697512 6.69565 0.45606 6.79643 0.278036 6.97581C0.100013 7.15519 0 7.39849 0 7.65217V10.5217C0 10.7754 0.100013 11.0187 0.278036 11.1981C0.45606 11.3775 0.697512 11.4783 0.949275 11.4783C1.20104 11.4783 1.44249 11.3775 1.62051 11.1981C1.79854 11.0187 1.89855 10.7754 1.89855 10.5217V8.6087H13.2899V14.3478C13.2899 15.8699 12.6898 17.3297 11.6216 18.406C10.5535 19.4823 9.10478 20.087 7.5942 20.087C6.08362 20.087 4.63491 19.4823 3.56677 18.406C2.49863 17.3297 1.89855 15.8699 1.89855 14.3478C1.89855 14.0941 1.79854 13.8508 1.62051 13.6715C1.44249 13.4921 1.20104 13.3913 0.949275 13.3913C0.697512 13.3913 0.45606 13.4921 0.278036 13.6715C0.100013 13.8508 0 14.0941 0 14.3478C0 16.3773 0.800101 18.3237 2.22429 19.7587C3.64848 21.1938 5.5801 22 7.5942 22C9.60831 22 11.5399 21.1938 12.9641 19.7587C14.3883 18.3237 15.1884 16.3773 15.1884 14.3478V7.65217C15.1884 7.39849 15.0884 7.15519 14.9104 6.97581C14.7323 6.79643 14.4909 6.69565 14.2391 6.69565ZM4.74638 6.69565V4.78261C4.74638 4.02155 5.04641 3.29167 5.58049 2.75352C6.11456 2.21537 6.83891 1.91304 7.5942 1.91304C8.34949 1.91304 9.07385 2.21537 9.60792 2.75352C10.142 3.29167 10.442 4.02155 10.442 4.78261V6.69565H4.74638Z" fill="black"/>
<path d="M7.59411 10.5217C7.34235 10.5217 7.10089 10.6225 6.92287 10.8019C6.74485 10.9813 6.64483 11.2246 6.64483 11.4783V12.6069C6.01146 12.8326 5.47765 13.2766 5.13773 13.8604C4.79782 14.4443 4.67369 15.1305 4.7873 15.7976C4.9009 16.4648 5.24491 17.07 5.75853 17.5064C6.27216 17.9427 6.92232 18.182 7.59411 18.182C8.2659 18.182 8.91606 17.9427 9.42968 17.5064C9.94331 17.07 10.2873 16.4648 10.4009 15.7976C10.5145 15.1305 10.3904 14.4443 10.0505 13.8604C9.71057 13.2766 9.17675 12.8326 8.54338 12.6069V11.4783C8.54338 11.2246 8.44337 10.9813 8.26535 10.8019C8.08732 10.6225 7.84587 10.5217 7.59411 10.5217ZM7.59411 16.2609C7.40636 16.2609 7.22283 16.2048 7.06672 16.0997C6.91061 15.9946 6.78894 15.8452 6.71709 15.6704C6.64524 15.4956 6.62645 15.3033 6.66307 15.1177C6.6997 14.9322 6.79011 14.7617 6.92287 14.628C7.05563 14.4942 7.22477 14.4031 7.40891 14.3662C7.59306 14.3293 7.78392 14.3482 7.95738 14.4206C8.13084 14.493 8.27909 14.6156 8.3834 14.7729C8.48771 14.9302 8.54338 15.1152 8.54338 15.3043C8.54338 15.558 8.44337 15.8013 8.26535 15.9807C8.08732 16.1601 7.84587 16.2609 7.59411 16.2609Z" fill="black"/>
</svg>
