<svg width="950" height="840" viewBox="0 0 950 840" fill="none" xmlns="http://www.w3.org/2000/svg">
<rect y="496" width="950" height="344" fill="#BDF2DB"/>
<rect width="950" height="496" fill="#F7F7FC"/>
<path d="M156.3 289.2L157.558 274.783C157.586 274.461 157.62 274.148 157.684 273.831C158.21 271.238 161.567 258.733 177.6 257.3C195.618 255.831 247.773 252.828 249.931 252.704C250 252.7 250.034 252.698 250.103 252.693L291.3 249.9L331.9 247.8L387.2 245.3L441 243.5H510.7H561.4L603.4 244.4L640.1 244.9L680.5 247.7L716.3 250.5L748.1 253.6L772 257.2C779.3 258.3 785.5 263.3 788.1 270.2C789.4 273.5 790.6 277.7 791.6 283C795.503 302.701 796.815 328.448 796.981 331.99C796.995 332.273 797 332.542 797 332.825V371.2V415.2L795.9 443.8L793.8 487.4L791.7 527.3L789.4 559.9L787.4 588L786.274 603.477C786.225 604.159 786.143 604.836 785.975 605.498C785.124 608.846 781.589 619.58 770.9 621.6C758.508 623.942 738.691 626.379 737.736 626.496C737.705 626.499 737.685 626.502 737.654 626.506L669.8 635.1L600.8 641.5L531.1 645.6H418.8L338.8 642.6L284.5 637.1L235 632.1L201 626.7L184.433 623.776C184.144 623.725 183.87 623.683 183.581 623.638C180.3 623.129 158.869 619.289 158.5 605.9C158.113 591.861 157.35 570.041 157.302 568.668C157.301 568.622 157.299 568.577 157.297 568.531L155.8 532.9L154.6 494.1L153.5 457.8V428.7V393.4V365.9L154.2 329.2L156.3 289.2Z" fill="white" stroke="black" stroke-width="1.5" stroke-miterlimit="10"/>
<path d="M363 461.5H386" stroke="#C4C4C4" stroke-width="4.5" stroke-linecap="round"/>
<path d="M363 486H405" stroke="#C4C4C4" stroke-width="4.5" stroke-linecap="round"/>
<path d="M363 498H405" stroke="#C4C4C4" stroke-width="4.5" stroke-linecap="round"/>
<path d="M422 486H439" stroke="#C4C4C4" stroke-width="4.5" stroke-linecap="round"/>
<path d="M363 474H449" stroke="#C4C4C4" stroke-width="4.5" stroke-linecap="round"/>
<path d="M396 461H439" stroke="#C4C4C4" stroke-width="4.5" stroke-linecap="round"/>
<path d="M137 296C132.5 301.333 120.5 313.5 131 331.5C132 333.214 137 339 131 341L126 342.5C128.333 343.833 131.438 346.5 132 348C132.5 349.333 131.951 351.622 131 354C130 356.5 127.5 363 127 366.5C126.167 371.333 126 381.8 132 385" stroke="black"/>
<path d="M310 586H231.9C222.6 586 215 578.4 215 569.1V319.9C215 310.6 222.6 303 231.9 303H310C319.3 303 326.9 310.6 326.9 319.9V569.1C326.9 578.4 319.3 586 310 586Z" fill="#F3F4F4"/>
<path d="M234.8 378.8L240.1 380.5C241.7 381 243.5 381.2 245.2 381L268 378.7" stroke="#DFDFE0" stroke-width="5" stroke-miterlimit="10"/>
<path d="M235.7 365.3C235.7 365.3 248.5 361.6 257.5 363.5C266.5 365.4 295.6 365.3 295.6 365.3" stroke="#DFDFE0" stroke-width="5" stroke-miterlimit="10"/>
<path d="M235.7 348C235.7 348 254.7 348.8 256.1 348.8C257.5 348.8 278.4 348.3 281.6 348C284.8 347.7 301.8 348 301.8 348" stroke="#DFDFE0" stroke-width="5" stroke-miterlimit="10"/>
<path d="M234.8 331.1C234.8 331.1 250 333.9 254.2 333.9C258.4 333.9 293.2 332.5 293.2 332.5" stroke="#DFDFE0" stroke-width="5" stroke-miterlimit="10"/>
<path d="M175.187 381.274C175.025 380.763 175.002 380.219 175.002 379.683V372.689V370.489C175.002 370.489 175.002 370.489 175.002 370.489C175.002 370.489 175.002 367.489 178.802 367.189C181.761 366.955 185.446 367.085 186.934 367.154C187.38 367.175 187.826 367.168 188.272 367.182C189.725 367.225 193.046 367.668 193.202 370.789C193.348 373.709 193.281 377.001 193.234 378.567C193.216 379.182 193.267 379.801 193.175 380.409C192.984 381.664 192.057 383.779 188.002 383.989C183.67 384.138 180.789 384.064 179.608 384.017C179.204 384.001 178.799 384.008 178.399 383.954C177.499 383.834 175.841 383.329 175.187 381.274Z" stroke="#CDCDCD" stroke-width="0.85" stroke-miterlimit="10"/>
<path d="M179.602 384.089C179.602 384.089 184.502 373.989 188.602 383.089" stroke="#CDCDCD" stroke-width="0.85" stroke-miterlimit="10"/>
<path d="M184.502 376.989C185.938 376.989 187.102 375.825 187.102 374.389C187.102 372.953 185.938 371.789 184.502 371.789C183.067 371.789 181.902 372.953 181.902 374.389C181.902 375.825 183.067 376.989 184.502 376.989Z" stroke="#CDCDCD" stroke-width="0.85" stroke-miterlimit="10"/>
<path d="M175.003 348.289V340.189C175.003 340.189 174.903 336.589 178.903 336.089C182.303 335.589 188.303 335.989 189.903 336.089C190.203 336.089 190.603 336.189 190.903 336.289C191.803 336.689 193.303 337.489 193.603 339.189C193.903 341.489 193.703 349.789 193.203 350.789C192.903 351.289 192.103 353.289 187.703 353.189C185.103 353.189 180.703 353.189 179.803 353.189V353.189C179.343 353.189 178.882 353.138 178.446 352.993C177.114 352.551 175.003 351.473 175.003 348.289Z" stroke="black" stroke-miterlimit="10"/>
<path d="M178.703 349.789L180.768 343.028C180.848 342.767 181.089 342.589 181.362 342.589V342.589C181.672 342.589 181.934 342.817 181.977 343.124L182.817 349.17C182.866 349.525 183.169 349.789 183.528 349.789V349.789C183.816 349.789 184.076 349.616 184.188 349.351L188 340.367C188.113 340.099 188.417 339.969 188.689 340.071V340.071C188.881 340.143 189.016 340.318 189.037 340.522L190.003 349.789" stroke="black" stroke-width="0.9" stroke-miterlimit="10"/>
<path d="M186.102 319.689V315.789C186.102 315.789 186.002 314.189 187.102 313.989C188.202 313.789 192.502 313.989 192.502 313.989C192.502 313.989 194.002 313.889 194.102 315.389C194.102 316.089 194.102 320.189 194.102 320.189C194.102 320.189 194.202 321.689 192.002 321.789C190.302 321.789 187.402 321.789 187.402 321.789C187.402 321.789 186.102 321.689 186.102 319.689Z" stroke="#CDCDCD" stroke-width="0.85" stroke-miterlimit="10"/>
<path d="M175.002 319.689V315.789C175.002 315.789 174.902 314.189 176.002 313.989C177.102 313.789 181.402 313.989 181.402 313.989C181.402 313.989 182.902 313.889 183.002 315.389C183.002 316.089 183.002 320.189 183.002 320.189C183.002 320.189 183.102 321.689 180.902 321.789C179.202 321.789 176.302 321.789 176.302 321.789C176.302 321.789 175.002 321.689 175.002 319.689Z" stroke="#CDCDCD" stroke-width="0.85" stroke-miterlimit="10"/>
<path d="M186.202 308.789V304.889C186.202 304.889 186.102 303.289 187.202 303.089C188.302 302.889 192.602 303.089 192.602 303.089C192.602 303.089 194.102 302.989 194.202 304.489C194.202 305.189 194.202 309.289 194.202 309.289C194.202 309.289 194.302 310.789 192.102 310.889C190.402 310.889 187.502 310.889 187.502 310.889C187.502 310.889 186.202 310.789 186.202 308.789Z" stroke="#CDCDCD" stroke-width="0.85" stroke-miterlimit="10"/>
<path d="M175.002 308.789V304.889C175.002 304.889 174.902 303.289 176.002 303.089C177.102 302.889 181.402 303.089 181.402 303.089C181.402 303.089 182.902 302.989 183.002 304.489C183.002 305.189 183.002 309.289 183.002 309.289C183.002 309.289 183.102 310.789 180.902 310.889C179.202 310.889 176.302 310.889 176.302 310.889C176.302 310.889 175.002 310.789 175.002 308.789Z" stroke="#CDCDCD" stroke-width="0.85" stroke-miterlimit="10"/>
<path d="M363.326 320.216C365.252 320.216 367.016 319.388 368.24 318.074L366.008 316.094C365.342 316.904 364.388 317.426 363.326 317.426C361.436 317.426 359.834 315.77 359.834 313.808C359.834 311.864 361.436 310.208 363.326 310.208C364.37 310.208 365.342 310.73 365.99 311.54L368.24 309.542C367.016 308.246 365.252 307.418 363.326 307.418C359.726 307.418 356.684 310.334 356.684 313.808C356.684 317.282 359.726 320.216 363.326 320.216ZM374.345 320.216C377.153 320.216 379.511 317.984 379.511 315.338C379.511 312.692 377.153 310.478 374.345 310.478C371.537 310.478 369.179 312.692 369.179 315.338C369.179 317.984 371.537 320.216 374.345 320.216ZM374.345 317.678C373.103 317.678 372.059 316.598 372.059 315.338C372.059 314.078 373.103 313.016 374.345 313.016C375.587 313.016 376.631 314.078 376.631 315.338C376.631 316.598 375.587 317.678 374.345 317.678ZM392.521 310.478C391.153 310.478 390.019 311.108 389.515 312.08C388.903 311.09 387.823 310.478 386.581 310.478C385.447 310.478 384.547 311.018 384.097 311.9V310.694H381.055V320H384.097V314.492C384.097 313.646 384.745 313.016 385.663 313.016C386.527 313.016 387.139 313.682 387.139 314.618V320.018H390.055V314.492C390.055 313.646 390.703 313.016 391.621 313.016C392.485 313.016 393.097 313.682 393.097 314.618V320.018H396.013V314.078C396.013 311.972 394.465 310.478 392.521 310.478ZM409.466 310.478C408.098 310.478 406.964 311.108 406.46 312.08C405.848 311.09 404.768 310.478 403.526 310.478C402.392 310.478 401.492 311.018 401.042 311.9V310.694H398V320H401.042V314.492C401.042 313.646 401.69 313.016 402.608 313.016C403.472 313.016 404.084 313.682 404.084 314.618V320.018H407V314.492C407 313.646 407.648 313.016 408.566 313.016C409.43 313.016 410.042 313.682 410.042 314.618V320.018H412.958V314.078C412.958 311.972 411.41 310.478 409.466 310.478ZM419.41 317.75C418.42 317.75 417.682 317.12 417.394 316.184H424.036C424.036 312.638 422.308 310.478 419.356 310.478C416.548 310.478 414.496 312.494 414.496 315.32C414.496 318.182 416.62 320.216 419.5 320.216C420.886 320.216 422.488 319.622 423.316 318.776L421.516 316.958C420.958 317.444 420.13 317.75 419.41 317.75ZM419.41 312.926C420.328 312.926 420.958 313.484 421.21 314.33H417.43C417.754 313.466 418.492 312.926 419.41 312.926ZM428.658 312.422V310.694H425.616V320H428.658V315.77L428.676 315.806C428.676 314.096 429.828 313.016 431.718 313.016V310.478C430.368 310.478 429.27 311.216 428.658 312.422ZM437.749 320.216C439.387 320.216 440.683 319.55 441.601 318.506L439.585 316.85C439.153 317.336 438.433 317.678 437.767 317.678C436.561 317.678 435.535 316.598 435.535 315.32C435.535 314.078 436.561 313.016 437.767 313.016C438.415 313.016 439.117 313.358 439.531 313.808L441.547 312.134C440.647 311.126 439.369 310.478 437.785 310.478C434.977 310.478 432.601 312.692 432.601 315.338C432.601 317.984 434.959 320.216 437.749 320.216ZM447.411 317.75C446.421 317.75 445.683 317.12 445.395 316.184H452.037C452.037 312.638 450.309 310.478 447.357 310.478C444.549 310.478 442.497 312.494 442.497 315.32C442.497 318.182 444.621 320.216 447.501 320.216C448.887 320.216 450.489 319.622 451.317 318.776L449.517 316.958C448.959 317.444 448.131 317.75 447.411 317.75ZM447.411 312.926C448.329 312.926 448.959 313.484 449.211 314.33H445.431C445.755 313.466 446.493 312.926 447.411 312.926ZM463.542 320.216C466.602 320.216 468.492 318.668 468.492 316.184C468.492 313.862 466.71 313.07 463.938 312.476C462.102 312.08 461.508 311.828 461.508 311.072C461.508 310.46 462.066 309.992 463.056 309.992C464.208 309.992 465.45 310.442 466.584 311.306L468.15 309.11C466.836 308.012 465.216 307.418 463.146 307.418C460.32 307.418 458.412 309.002 458.412 311.378C458.412 313.862 460.374 314.582 463.02 315.176C464.82 315.608 465.396 315.77 465.396 316.508C465.396 317.174 464.802 317.642 463.65 317.642C462.138 317.642 460.788 317.066 459.582 316.076L457.854 318.146C459.348 319.496 461.346 320.216 463.542 320.216ZM475.309 317.372C475.129 317.552 474.787 317.678 474.445 317.678C473.959 317.678 473.599 317.264 473.599 316.67V313.124H475.525V310.694H473.599V308.138H470.683V310.694H469.459V313.124H470.683V317.228C470.683 318.974 471.907 320.216 473.653 320.216C474.445 320.216 475.363 319.856 475.921 319.334L475.309 317.372ZM483.521 310.694V316.112L483.503 316.058C483.503 316.976 482.801 317.678 481.865 317.678C480.929 317.678 480.281 316.958 480.281 315.932V310.694H477.365V316.616C477.365 318.722 478.787 320.216 480.785 320.216C481.955 320.216 482.945 319.73 483.521 318.938V320H486.563V310.694H483.521ZM495.492 307.418V311.882C494.754 311 493.692 310.478 492.45 310.478C489.948 310.478 488.184 312.494 488.184 315.338C488.184 318.2 489.948 320.216 492.45 320.216C493.692 320.216 494.754 319.694 495.492 318.812V320H498.552V307.418H495.492ZM493.368 317.678C492.054 317.678 491.118 316.706 491.118 315.338C491.118 313.988 492.054 313.016 493.368 313.016C494.628 313.016 495.492 313.988 495.492 315.338C495.492 316.706 494.628 317.678 493.368 317.678ZM502.188 309.56C503.07 309.56 503.772 308.822 503.772 307.94C503.772 307.094 503.07 306.356 502.188 306.356C501.288 306.356 500.568 307.094 500.568 307.94C500.568 308.822 501.288 309.56 502.188 309.56ZM500.64 320H503.682V310.694H500.64V320ZM510.488 320.216C513.296 320.216 515.654 317.984 515.654 315.338C515.654 312.692 513.296 310.478 510.488 310.478C507.68 310.478 505.322 312.692 505.322 315.338C505.322 317.984 507.68 320.216 510.488 320.216ZM510.488 317.678C509.246 317.678 508.202 316.598 508.202 315.338C508.202 314.078 509.246 313.016 510.488 313.016C511.73 313.016 512.774 314.078 512.774 315.338C512.774 316.598 511.73 317.678 510.488 317.678ZM518.061 315.356H520.131L520.797 307.634H517.377L518.061 315.356ZM519.105 320.216C520.095 320.216 520.923 319.37 520.923 318.326C520.923 317.354 520.095 316.508 519.105 316.508C518.025 316.508 517.197 317.354 517.197 318.326C517.197 319.37 518.025 320.216 519.105 320.216Z" fill="black"/>
<rect x="635.5" y="305" width="57" height="20" fill="#F1F1F1"/>
<rect x="707.5" y="305" width="57" height="20" fill="#191A1B"/>
<path d="M356 360L521.5 358H661L761.5 360" stroke="#E3E0E0"/>
<path d="M356 360L467 358" stroke="black" stroke-width="1.5"/>
<path d="M359.25 347.11C360.89 347.11 361.83 346.24 361.83 345.01C361.83 343.76 360.87 343.3 359.44 342.98C358.35 342.73 357.84 342.53 357.84 341.97C357.84 341.49 358.31 341.07 359 341.07C359.68 341.07 360.37 341.36 360.97 341.88L361.65 340.96C360.96 340.37 360.14 340 359.05 340C357.6 340 356.58 340.88 356.58 342.08C356.58 343.37 357.57 343.78 358.99 344.11C360.09 344.37 360.58 344.56 360.58 345.13C360.58 345.62 360.14 346.04 359.29 346.04C358.39 346.04 357.66 345.68 357.03 345.11L356.31 346C357.07 346.71 358.07 347.11 359.25 347.11ZM366.43 341.83V345.1C366.35 345.65 365.82 346.08 365.18 346.08C364.54 346.08 364.09 345.58 364.09 344.88V341.83H362.91V345.12C362.91 346.29 363.7 347.12 364.83 347.12C365.51 347.12 366.11 346.79 366.43 346.31V347H367.65V341.83H366.43ZM372.844 341.83V342.6C372.474 342.05 371.804 341.71 371.074 341.71C369.734 341.71 368.744 342.72 368.744 344.16C368.744 345.6 369.734 346.62 371.074 346.62C371.814 346.62 372.434 346.29 372.844 345.74V346.41C372.844 347.19 372.204 347.68 371.184 347.68C370.574 347.68 369.954 347.47 369.594 347.14L369.144 348.03C369.654 348.43 370.474 348.72 371.364 348.72C372.944 348.72 374.064 347.78 374.064 346.45V341.83H372.844ZM371.424 345.58C370.604 345.58 370.014 344.99 370.014 344.16C370.014 343.34 370.604 342.75 371.424 342.75C372.254 342.75 372.844 343.34 372.844 344.16C372.844 344.99 372.254 345.58 371.424 345.58ZM379.28 341.83V342.6C378.91 342.05 378.24 341.71 377.51 341.71C376.17 341.71 375.18 342.72 375.18 344.16C375.18 345.6 376.17 346.62 377.51 346.62C378.25 346.62 378.87 346.29 379.28 345.74V346.41C379.28 347.19 378.64 347.68 377.62 347.68C377.01 347.68 376.39 347.47 376.03 347.14L375.58 348.03C376.09 348.43 376.91 348.72 377.8 348.72C379.38 348.72 380.5 347.78 380.5 346.45V341.83H379.28ZM377.86 345.58C377.04 345.58 376.45 344.99 376.45 344.16C376.45 343.34 377.04 342.75 377.86 342.75C378.69 342.75 379.28 343.34 379.28 344.16C379.28 344.99 378.69 345.58 377.86 345.58ZM384.275 346.04C383.535 346.04 382.995 345.54 382.845 344.83H386.745C386.745 342.92 385.815 341.71 384.215 341.71C382.745 341.71 381.585 342.85 381.585 344.4C381.585 345.99 382.805 347.12 384.285 347.12C385.035 347.12 385.935 346.8 386.385 346.32L385.615 345.52C385.325 345.82 384.755 346.04 384.275 346.04ZM384.265 342.79C384.995 342.79 385.435 343.25 385.575 343.9H382.855C383.035 343.22 383.585 342.79 384.265 342.79ZM389.713 347.12C390.923 347.12 391.743 346.48 391.743 345.49C391.743 344.41 390.803 344.11 389.933 343.87C389.143 343.64 388.873 343.54 388.873 343.21C388.873 342.92 389.203 342.75 389.633 342.75C390.083 342.75 390.613 342.91 391.103 343.22L391.613 342.33C391.053 341.96 390.343 341.71 389.633 341.71C388.483 341.71 387.683 342.37 387.683 343.34C387.693 344.26 388.403 344.58 389.523 344.87C390.113 345.03 390.563 345.16 390.563 345.56C390.563 345.88 390.223 346.09 389.733 346.09C389.083 346.09 388.503 345.85 388.003 345.49L387.453 346.34C388.073 346.84 388.923 347.12 389.713 347.12ZM395.383 345.89C395.273 346 395.083 346.08 394.873 346.08C394.583 346.08 394.363 345.83 394.363 345.48V342.84H395.533V341.83H394.363V340.41H393.173V341.83H392.423V342.84H393.173V345.63C393.173 346.5 393.773 347.12 394.633 347.12C395.023 347.12 395.443 346.96 395.733 346.71L395.383 345.89ZM399.09 346.04C398.35 346.04 397.81 345.54 397.66 344.83H401.56C401.56 342.92 400.63 341.71 399.03 341.71C397.56 341.71 396.4 342.85 396.4 344.4C396.4 345.99 397.62 347.12 399.1 347.12C399.85 347.12 400.75 346.8 401.2 346.32L400.43 345.52C400.14 345.82 399.57 346.04 399.09 346.04ZM399.08 342.79C399.81 342.79 400.25 343.25 400.39 343.9H397.67C397.85 343.22 398.4 342.79 399.08 342.79ZM406.547 340.01V342.63C406.137 342.05 405.517 341.71 404.757 341.71C403.387 341.71 402.387 342.83 402.387 344.41C402.387 346 403.387 347.12 404.757 347.12C405.517 347.12 406.137 346.78 406.547 346.2V347H407.767V340.01H406.547ZM405.087 346.08C404.217 346.08 403.597 345.38 403.597 344.41C403.597 343.44 404.217 342.75 405.087 342.75C405.947 342.75 406.547 343.44 406.547 344.41C406.547 345.38 405.947 346.08 405.087 346.08ZM412.103 347H413.353V342.41L415.613 346.6L417.883 342.41V347H419.123V340.13H417.883L415.613 344.32L413.353 340.13H412.103V347ZM423.016 346.04C422.276 346.04 421.736 345.54 421.586 344.83H425.486C425.486 342.92 424.556 341.71 422.956 341.71C421.486 341.71 420.326 342.85 420.326 344.4C420.326 345.99 421.546 347.12 423.026 347.12C423.776 347.12 424.676 346.8 425.126 346.32L424.356 345.52C424.066 345.82 423.496 346.04 423.016 346.04ZM423.006 342.79C423.736 342.79 424.176 343.25 424.316 343.9H421.596C421.776 343.22 422.326 342.79 423.006 342.79ZM427.793 342.83V341.83H426.573V347H427.793V344.39C427.793 343.41 428.533 342.75 429.643 342.75V341.71C428.793 341.71 428.123 342.14 427.793 342.83ZM433.037 347.12C433.857 347.12 434.547 346.78 435.047 346.25L434.227 345.54C433.937 345.87 433.497 346.08 433.047 346.08C432.197 346.08 431.487 345.32 431.487 344.41C431.487 343.51 432.197 342.75 433.047 342.75C433.487 342.75 433.917 342.96 434.197 343.27L435.017 342.55C434.527 342.04 433.837 341.71 433.057 341.71C431.547 341.71 430.277 342.94 430.277 344.41C430.277 345.88 431.547 347.12 433.037 347.12ZM438.826 341.71C438.136 341.71 437.526 342.04 437.216 342.54V340.01H435.996V347H437.216V343.87C437.216 343.25 437.786 342.75 438.476 342.75C439.116 342.75 439.566 343.25 439.566 343.95V347H440.746V343.71C440.746 342.54 439.956 341.71 438.826 341.71ZM444.32 341.71C443.67 341.71 442.99 341.89 442.26 342.25L442.68 343.1C443.12 342.88 443.59 342.71 444.08 342.71C445.02 342.71 445.35 343.29 445.35 343.89V344.03C444.88 343.85 444.37 343.75 443.9 343.75C442.74 343.75 441.79 344.45 441.79 345.47C441.79 346.47 442.62 347.12 443.72 347.12C444.32 347.12 444.97 346.86 445.35 346.38V347H446.54V343.89C446.54 342.58 445.69 341.71 444.32 341.71ZM443.99 346.23C443.41 346.23 442.98 345.92 442.98 345.43C442.98 344.94 443.47 344.6 444.08 344.6C444.54 344.6 444.97 344.67 445.35 344.8V345.38C445.21 345.93 444.58 346.23 443.99 346.23ZM450.681 341.71C450.001 341.71 449.401 342.04 449.081 342.52V341.83H447.861V347H449.081V343.73C449.161 343.18 449.691 342.75 450.331 342.75C450.971 342.75 451.421 343.25 451.421 343.95V347H452.601V343.71C452.601 342.54 451.811 341.71 450.681 341.71ZM456.506 345.89C456.396 346 456.206 346.08 455.996 346.08C455.706 346.08 455.486 345.83 455.486 345.48V342.84H456.656V341.83H455.486V340.41H454.296V341.83H453.546V342.84H454.296V345.63C454.296 346.5 454.896 347.12 455.756 347.12C456.146 347.12 456.566 346.96 456.856 346.71L456.506 345.89ZM459.713 347.12C460.923 347.12 461.743 346.48 461.743 345.49C461.743 344.41 460.803 344.11 459.933 343.87C459.143 343.64 458.873 343.54 458.873 343.21C458.873 342.92 459.203 342.75 459.633 342.75C460.083 342.75 460.613 342.91 461.103 343.22L461.613 342.33C461.053 341.96 460.343 341.71 459.633 341.71C458.483 341.71 457.683 342.37 457.683 343.34C457.693 344.26 458.403 344.58 459.523 344.87C460.113 345.03 460.563 345.16 460.563 345.56C460.563 345.88 460.223 346.09 459.733 346.09C459.083 346.09 458.503 345.85 458.003 345.49L457.453 346.34C458.073 346.84 458.923 347.12 459.713 347.12Z" fill="#191A1B"/>
<path d="M361.783 379H362.692V374.311L366.247 379H367.156V372.817H366.247V377.506L362.692 372.817H361.783V379ZM370.544 374.239C370.031 374.239 369.446 374.374 368.78 374.707L369.104 375.364C369.509 375.157 369.959 374.977 370.418 374.977C371.345 374.977 371.615 375.598 371.615 376.183V376.327C371.165 376.174 370.67 376.075 370.211 376.075C369.185 376.075 368.348 376.696 368.348 377.623C368.348 378.532 369.077 379.108 370.067 379.108C370.634 379.108 371.273 378.847 371.615 378.361V379H372.488V376.183C372.488 375.031 371.795 374.239 370.544 374.239ZM370.238 378.406C369.653 378.406 369.203 378.1 369.203 377.596C369.203 377.092 369.725 376.741 370.346 376.741C370.805 376.741 371.237 376.804 371.615 376.921V377.542C371.462 378.118 370.814 378.406 370.238 378.406ZM378.979 374.239C378.277 374.239 377.683 374.599 377.467 375.175C377.197 374.599 376.648 374.239 375.973 374.239C375.379 374.239 374.893 374.536 374.659 374.995V374.347H373.768V379H374.659V376.093C374.659 375.454 375.127 375.013 375.793 375.013C376.378 375.013 376.783 375.49 376.783 376.174V379H377.656V376.093C377.656 375.454 378.124 375.013 378.79 375.013C379.375 375.013 379.78 375.49 379.78 376.174V379H380.653V376.039C380.653 374.986 379.951 374.239 378.979 374.239ZM384.066 378.316C383.265 378.316 382.698 377.758 382.581 376.984H386.244C386.244 375.319 385.425 374.239 384.003 374.239C382.716 374.239 381.681 375.265 381.681 376.66C381.681 378.091 382.779 379.108 384.075 379.108C384.732 379.108 385.542 378.829 385.956 378.388L385.398 377.812C385.119 378.1 384.552 378.316 384.066 378.316ZM384.039 375.031C384.84 375.031 385.281 375.553 385.38 376.273H382.59C382.734 375.517 383.319 375.031 384.039 375.031Z" fill="#434242"/>
<path d="M356 389L521.296 387H660.624L761 389" stroke="#E3E0E0"/>
<path d="M356 417L521.296 415H660.624L761 417" stroke="#E3E0E0"/>
<path d="M366.148 399.483V398.817H361.711V405H362.422V402.183H365.779V401.517H362.422V399.483H366.148ZM369.058 400.239C368.608 400.239 368.05 400.356 367.384 400.689L367.654 401.238C368.077 401.022 368.545 400.815 369.013 400.815C370.021 400.815 370.273 401.535 370.273 402.165V402.336C369.796 402.183 369.265 402.075 368.761 402.075C367.762 402.075 366.934 402.696 366.934 403.623C366.934 404.541 367.654 405.108 368.635 405.108C369.247 405.108 369.94 404.82 370.273 404.271V405H370.948V402.165C370.948 401.04 370.327 400.239 369.058 400.239ZM368.752 404.514C368.095 404.514 367.591 404.172 367.591 403.596C367.591 403.038 368.176 402.642 368.869 402.642C369.373 402.642 369.85 402.714 370.273 402.831V403.542C370.093 404.199 369.364 404.514 368.752 404.514ZM372.661 399.501C372.904 399.501 373.102 399.294 373.102 399.051C373.102 398.817 372.904 398.61 372.661 398.61C372.409 398.61 372.211 398.817 372.211 399.051C372.211 399.294 372.409 399.501 372.661 399.501ZM372.319 405H372.994V400.347H372.319V405ZM375.087 401.256V400.347H374.412V405H375.087V402.399C375.087 401.49 375.834 400.842 376.887 400.842V400.239C376.032 400.239 375.366 400.635 375.087 401.256ZM382.852 400.239C382.15 400.239 381.538 400.626 381.349 401.229C381.097 400.626 380.548 400.239 379.846 400.239C379.234 400.239 378.73 400.545 378.496 401.031V400.347H377.821V405H378.496V402.039C378.496 401.337 379.018 400.842 379.756 400.842C380.386 400.842 380.827 401.373 380.827 402.129V405H381.502V402.039C381.502 401.337 382.024 400.842 382.762 400.842C383.392 400.842 383.833 401.373 383.833 402.129V405H384.508V402.039C384.508 400.986 383.824 400.239 382.852 400.239ZM388.032 405.108C389.337 405.108 390.435 403.992 390.435 402.669C390.435 401.346 389.337 400.239 388.032 400.239C386.727 400.239 385.62 401.346 385.62 402.669C385.62 403.992 386.727 405.108 388.032 405.108ZM388.032 404.505C387.105 404.505 386.331 403.668 386.331 402.669C386.331 401.679 387.105 400.842 388.032 400.842C388.95 400.842 389.724 401.679 389.724 402.669C389.724 403.668 388.95 404.505 388.032 404.505ZM393.763 400.239C393.106 400.239 392.503 400.599 392.233 401.094V400.347H391.558V405H392.233V402.039C392.233 401.391 392.89 400.842 393.673 400.842C394.357 400.842 394.834 401.373 394.834 402.129V405H395.509V402.039C395.509 400.986 394.789 400.239 393.763 400.239ZM398.918 404.316C398.819 404.424 398.639 404.505 398.432 404.505C398.162 404.505 397.928 404.262 397.928 403.92V400.95H399.071V400.347H397.928V399.069H397.253V400.347H396.524V400.95H397.253V403.92C397.253 404.613 397.721 405.108 398.387 405.108C398.702 405.108 399.008 405 399.251 404.811L398.918 404.316ZM402.42 400.239C401.763 400.239 401.16 400.599 400.89 401.094V398.709H400.215V405H400.89V402.039C400.89 401.391 401.547 400.842 402.33 400.842C403.014 400.842 403.491 401.373 403.491 402.129V405H404.166V402.039C404.166 400.986 403.446 400.239 402.42 400.239ZM407.693 405.108C408.998 405.108 410.096 403.992 410.096 402.669C410.096 401.346 408.998 400.239 407.693 400.239C406.388 400.239 405.281 401.346 405.281 402.669C405.281 403.992 406.388 405.108 407.693 405.108ZM407.693 404.505C406.766 404.505 405.992 403.668 405.992 402.669C405.992 401.679 406.766 400.842 407.693 400.842C408.611 400.842 409.385 401.679 409.385 402.669C409.385 403.668 408.611 404.505 407.693 404.505ZM413.253 404.316C413.154 404.424 412.974 404.505 412.767 404.505C412.497 404.505 412.263 404.262 412.263 403.92V400.95H413.406V400.347H412.263V399.069H411.588V400.347H410.859V400.95H411.588V403.92C411.588 404.613 412.056 405.108 412.722 405.108C413.037 405.108 413.343 405 413.586 404.811L413.253 404.316ZM416.638 404.505C415.72 404.505 415.081 403.839 414.982 402.93H418.789C418.789 401.301 417.988 400.239 416.584 400.239C415.333 400.239 414.289 401.274 414.289 402.66C414.289 404.091 415.405 405.108 416.647 405.108C417.295 405.108 418.114 404.829 418.519 404.388L418.105 403.947C417.817 404.262 417.187 404.505 416.638 404.505ZM416.611 400.842C417.538 400.842 418.033 401.49 418.123 402.327H414.991C415.117 401.427 415.783 400.842 416.611 400.842ZM419.894 405H420.569V398.709H419.894V405ZM423.58 405.108C424.543 405.108 425.281 404.559 425.281 403.704C425.281 402.822 424.507 402.57 423.76 402.336C422.896 402.057 422.554 401.931 422.554 401.526C422.554 401.076 422.986 400.842 423.508 400.842C423.922 400.842 424.381 400.986 424.849 401.283L425.173 400.761C424.678 400.437 424.084 400.239 423.508 400.239C422.581 400.239 421.879 400.761 421.879 401.607C421.879 402.273 422.311 402.606 423.436 402.93C424.066 403.11 424.606 403.272 424.606 403.776C424.606 404.217 424.192 404.505 423.58 404.505C423.067 404.505 422.536 404.307 422.005 403.92L421.654 404.415C422.212 404.865 422.932 405.108 423.58 405.108ZM427.136 401.256V400.347H426.461V405H427.136V402.399C427.136 401.49 427.883 400.842 428.936 400.842V400.239C428.081 400.239 427.415 400.635 427.136 401.256ZM431.967 404.505C431.049 404.505 430.41 403.839 430.311 402.93H434.118C434.118 401.301 433.317 400.239 431.913 400.239C430.662 400.239 429.618 401.274 429.618 402.66C429.618 404.091 430.734 405.108 431.976 405.108C432.624 405.108 433.443 404.829 433.848 404.388L433.434 403.947C433.146 404.262 432.516 404.505 431.967 404.505ZM431.94 400.842C432.867 400.842 433.362 401.49 433.452 402.327H430.32C430.446 401.427 431.112 400.842 431.94 400.842ZM436.869 405.108C437.832 405.108 438.57 404.559 438.57 403.704C438.57 402.822 437.796 402.57 437.049 402.336C436.185 402.057 435.843 401.931 435.843 401.526C435.843 401.076 436.275 400.842 436.797 400.842C437.211 400.842 437.67 400.986 438.138 401.283L438.462 400.761C437.967 400.437 437.373 400.239 436.797 400.239C435.87 400.239 435.168 400.761 435.168 401.607C435.168 402.273 435.6 402.606 436.725 402.93C437.355 403.11 437.895 403.272 437.895 403.776C437.895 404.217 437.481 404.505 436.869 404.505C436.356 404.505 435.825 404.307 435.294 403.92L434.943 404.415C435.501 404.865 436.221 405.108 436.869 405.108ZM440.155 405.108C440.416 405.108 440.632 404.883 440.632 404.613C440.632 404.361 440.416 404.136 440.155 404.136C439.876 404.136 439.66 404.361 439.66 404.613C439.66 404.883 439.876 405.108 440.155 405.108ZM442.431 405.108C442.692 405.108 442.908 404.883 442.908 404.613C442.908 404.361 442.692 404.136 442.431 404.136C442.152 404.136 441.936 404.361 441.936 404.613C441.936 404.883 442.152 405.108 442.431 405.108Z" fill="#959595"/>
<path d="M470.484 405H471.186V399.483H473.265V398.817H468.405V399.483H470.484V405ZM475.091 401.256V400.347H474.416V405H475.091V402.399C475.091 401.49 475.838 400.842 476.891 400.842V400.239C476.036 400.239 475.37 400.635 475.091 401.256ZM479.715 400.239C479.265 400.239 478.707 400.356 478.041 400.689L478.311 401.238C478.734 401.022 479.202 400.815 479.67 400.815C480.678 400.815 480.93 401.535 480.93 402.165V402.336C480.453 402.183 479.922 402.075 479.418 402.075C478.419 402.075 477.591 402.696 477.591 403.623C477.591 404.541 478.311 405.108 479.292 405.108C479.904 405.108 480.597 404.82 480.93 404.271V405H481.605V402.165C481.605 401.04 480.984 400.239 479.715 400.239ZM479.409 404.514C478.752 404.514 478.248 404.172 478.248 403.596C478.248 403.038 478.833 402.642 479.526 402.642C480.03 402.642 480.507 402.714 480.93 402.831V403.542C480.75 404.199 480.021 404.514 479.409 404.514ZM484.523 405H485.171L487.124 400.347H486.368L484.847 404.208L483.299 400.347H482.543L484.523 405ZM489.836 404.505C488.918 404.505 488.279 403.839 488.18 402.93H491.987C491.987 401.301 491.186 400.239 489.782 400.239C488.531 400.239 487.487 401.274 487.487 402.66C487.487 404.091 488.603 405.108 489.845 405.108C490.493 405.108 491.312 404.829 491.717 404.388L491.303 403.947C491.015 404.262 490.385 404.505 489.836 404.505ZM489.809 400.842C490.736 400.842 491.231 401.49 491.321 402.327H488.189C488.315 401.427 488.981 400.842 489.809 400.842ZM493.091 405H493.766V398.709H493.091V405Z" fill="#959595"/>
<path d="M363 428H406" stroke="#C4C4C4" stroke-width="4.5" stroke-linecap="round"/>
<path d="M417 428H433" stroke="#C4C4C4" stroke-width="4.5" stroke-linecap="round"/>
<path d="M470 430H497" stroke="#C4C4C4" stroke-width="4.5" stroke-linecap="round"/>
<path d="M550 430H577" stroke="#C4C4C4" stroke-width="4.5" stroke-linecap="round"/>
<path d="M634 430H661" stroke="#C4C4C4" stroke-width="4.5" stroke-linecap="round"/>
<path d="M703 430H730" stroke="#C4C4C4" stroke-width="4.5" stroke-linecap="round"/>
<path d="M549.242 405H550.052L552.716 399.348V398.817H548.531V399.483H551.879L549.242 405ZM556.501 405.108C558.004 405.108 559.066 403.785 559.066 401.904C559.066 400.032 558.004 398.709 556.501 398.709C554.989 398.709 553.927 400.032 553.927 401.904C553.927 403.785 554.989 405.108 556.501 405.108ZM556.501 404.46C555.412 404.46 554.638 403.398 554.638 401.904C554.638 400.41 555.412 399.357 556.501 399.357C557.59 399.357 558.355 400.41 558.355 401.904C558.355 403.398 557.59 404.46 556.501 404.46ZM562.32 398.709C561.033 398.709 560.142 399.609 560.142 400.752C560.142 401.976 561.087 402.678 562.212 402.678C562.941 402.678 563.58 402.327 563.958 401.733V401.814C563.958 403.299 563.175 404.469 562.185 404.469C561.591 404.469 561.186 404.199 560.799 403.821L560.412 404.37C560.871 404.811 561.411 405.108 562.167 405.108C563.571 405.108 564.669 403.659 564.669 401.814C564.669 400.068 563.994 398.709 562.32 398.709ZM562.338 402.075C561.51 402.075 560.853 401.562 560.853 400.716C560.853 400.032 561.402 399.312 562.329 399.312C563.193 399.312 563.697 399.987 563.877 400.923C563.724 401.607 563.121 402.075 562.338 402.075ZM566.361 405.108C566.622 405.108 566.838 404.883 566.838 404.613C566.838 404.361 566.622 404.136 566.361 404.136C566.082 404.136 565.866 404.361 565.866 404.613C565.866 404.883 566.082 405.108 566.361 405.108ZM570.095 405.108C571.382 405.108 572.246 404.361 572.246 403.326C572.246 402.435 571.544 401.976 570.914 401.832C571.553 401.643 572.111 401.175 572.111 400.383C572.111 399.393 571.247 398.709 570.068 398.709C569.105 398.709 568.421 399.177 567.953 399.798L568.421 400.221C568.862 399.69 569.348 399.348 570.032 399.348C570.806 399.348 571.4 399.816 571.4 400.464C571.4 401.166 570.779 401.562 569.951 401.553L569.285 401.544V402.192H569.942C570.914 402.192 571.535 402.561 571.535 403.29C571.535 403.992 570.959 404.469 570.095 404.469C569.339 404.469 568.736 404.109 568.331 403.587L567.845 404.046C568.295 404.64 569.078 405.108 570.095 405.108ZM575.441 405.108C576.71 405.108 577.637 404.298 577.637 403.074C577.637 401.85 576.71 401.148 575.594 401.148C575.027 401.148 574.604 401.337 574.271 401.562L574.334 399.483H577.304V398.817H573.65L573.56 401.994L574.073 402.246C574.46 401.958 574.919 401.769 575.45 401.769C576.314 401.769 576.926 402.309 576.926 403.101C576.926 403.884 576.323 404.478 575.468 404.478C574.784 404.478 574.199 404.136 573.722 403.614L573.263 404.127C573.767 404.703 574.487 405.108 575.441 405.108ZM578.974 405H579.676V403.146L580.648 402.12L582.997 405H583.906L581.134 401.643L583.735 398.817H582.808L579.676 402.237V398.817H578.974V405Z" fill="#959595"/>
<path d="M635.537 405H636.239V403.497H637.166V402.858H636.239V398.817H635.429L632.36 402.912L632.45 403.497H635.537V405ZM633.161 402.858L635.537 399.663V402.858H633.161ZM640.712 405.108C642.215 405.108 643.277 403.785 643.277 401.904C643.277 400.032 642.215 398.709 640.712 398.709C639.2 398.709 638.138 400.032 638.138 401.904C638.138 403.785 639.2 405.108 640.712 405.108ZM640.712 404.46C639.623 404.46 638.849 403.398 638.849 401.904C638.849 400.41 639.623 399.357 640.712 399.357C641.801 399.357 642.566 400.41 642.566 401.904C642.566 403.398 641.801 404.46 640.712 404.46ZM645.055 405H645.865L648.529 399.348V398.817H644.344V399.483H647.692L645.055 405ZM650.055 405H650.757V400.329L653.052 404.64L655.347 400.329V405H656.049V398.817H655.347L653.052 403.128L650.757 398.817H650.055V405Z" fill="#959595"/>
<path d="M703.997 401.139C703.268 401.139 702.629 401.49 702.251 402.084V402.003C702.251 400.518 703.034 399.348 704.024 399.348C704.618 399.348 705.023 399.618 705.41 399.996L705.797 399.447C705.338 399.006 704.798 398.709 704.042 398.709C702.638 398.709 701.54 400.158 701.54 402.003C701.54 403.749 702.215 405.108 703.889 405.108C705.176 405.108 706.067 404.208 706.067 403.065C706.067 401.841 705.122 401.139 703.997 401.139ZM703.88 404.505C703.016 404.505 702.512 403.83 702.332 402.894C702.485 402.21 703.088 401.742 703.871 401.742C704.699 401.742 705.356 402.255 705.356 403.101C705.356 403.785 704.807 404.505 703.88 404.505ZM707.048 405H711.314V404.334H708.173L709.793 402.93C710.837 402.03 711.251 401.364 711.251 400.527C711.251 399.42 710.351 398.709 709.28 398.709C708.308 398.709 707.615 399.168 707.102 399.897L707.597 400.302C708.02 399.726 708.533 399.339 709.253 399.339C709.91 399.339 710.54 399.78 710.54 400.536C710.54 401.148 710.18 401.742 709.307 402.489L707.048 404.415V405ZM714.589 405.108C715.858 405.108 716.785 404.298 716.785 403.074C716.785 401.85 715.858 401.148 714.742 401.148C714.175 401.148 713.752 401.337 713.419 401.562L713.482 399.483H716.452V398.817H712.798L712.708 401.994L713.221 402.246C713.608 401.958 714.067 401.769 714.598 401.769C715.462 401.769 716.074 402.309 716.074 403.101C716.074 403.884 715.471 404.478 714.616 404.478C713.932 404.478 713.347 404.136 712.87 403.614L712.411 404.127C712.915 404.703 713.635 405.108 714.589 405.108ZM718.141 405H718.843V400.329L721.138 404.64L723.433 400.329V405H724.135V398.817H723.433L721.138 403.128L718.843 398.817H718.141V405Z" fill="#959595"/>
<path d="M471.645 379.108C472.527 379.108 473.337 378.73 473.922 378.136L473.283 377.524C472.869 377.974 472.284 378.271 471.645 378.271C470.412 378.271 469.368 377.191 469.368 375.904C469.368 374.626 470.412 373.546 471.645 373.546C472.284 373.546 472.869 373.843 473.283 374.293L473.922 373.681C473.337 373.078 472.527 372.709 471.645 372.709C469.908 372.709 468.432 374.167 468.432 375.904C468.432 377.641 469.908 379.108 471.645 379.108ZM476.762 374.239C476.249 374.239 475.664 374.374 474.998 374.707L475.322 375.364C475.727 375.157 476.177 374.977 476.636 374.977C477.563 374.977 477.833 375.598 477.833 376.183V376.327C477.383 376.174 476.888 376.075 476.429 376.075C475.403 376.075 474.566 376.696 474.566 377.623C474.566 378.532 475.295 379.108 476.285 379.108C476.852 379.108 477.491 378.847 477.833 378.361V379H478.706V376.183C478.706 375.031 478.013 374.239 476.762 374.239ZM476.456 378.406C475.871 378.406 475.421 378.1 475.421 377.596C475.421 377.092 475.943 376.741 476.564 376.741C477.023 376.741 477.455 376.804 477.833 376.921V377.542C477.68 378.118 477.032 378.406 476.456 378.406ZM482.173 378.163C482.074 378.262 481.894 378.334 481.696 378.334C481.435 378.334 481.219 378.1 481.219 377.776V375.103H482.317V374.347H481.219V373.069H480.346V374.347H479.644V375.103H480.346V377.839C480.346 378.586 480.85 379.108 481.57 379.108C481.903 379.108 482.245 378.982 482.497 378.775L482.173 378.163ZM485.538 378.316C484.737 378.316 484.17 377.758 484.053 376.984H487.716C487.716 375.319 486.897 374.239 485.475 374.239C484.188 374.239 483.153 375.265 483.153 376.66C483.153 378.091 484.251 379.108 485.547 379.108C486.204 379.108 487.014 378.829 487.428 378.388L486.87 377.812C486.591 378.1 486.024 378.316 485.538 378.316ZM485.511 375.031C486.312 375.031 486.753 375.553 486.852 376.273H484.062C484.206 375.517 484.791 375.031 485.511 375.031ZM492.286 374.347V375.094C491.935 374.572 491.341 374.239 490.639 374.239C489.415 374.239 488.524 375.148 488.524 376.444C488.524 377.74 489.415 378.658 490.639 378.658C491.341 378.658 491.917 378.343 492.286 377.812V378.487C492.286 379.297 491.683 379.774 490.684 379.774C490.126 379.774 489.568 379.585 489.226 379.261L488.875 379.927C489.316 380.287 490.036 380.548 490.819 380.548C492.196 380.548 493.177 379.702 493.177 378.505V374.347H492.286ZM490.864 377.884C490.036 377.884 489.451 377.29 489.451 376.444C489.451 375.607 490.036 375.013 490.864 375.013C491.692 375.013 492.286 375.607 492.286 376.444C492.286 377.29 491.692 377.884 490.864 377.884ZM496.71 379.108C498.033 379.108 499.149 377.992 499.149 376.669C499.149 375.346 498.033 374.239 496.71 374.239C495.378 374.239 494.253 375.346 494.253 376.669C494.253 377.992 495.378 379.108 496.71 379.108ZM496.71 378.334C495.855 378.334 495.144 377.578 495.144 376.669C495.144 375.769 495.855 375.013 496.71 375.013C497.547 375.013 498.258 375.769 498.258 376.669C498.258 377.578 497.547 378.334 496.71 378.334ZM501.128 375.238V374.347H500.237V379H501.128V376.354C501.209 375.544 501.893 375.013 502.856 375.013V374.239C502.055 374.239 501.425 374.626 501.128 375.238ZM504.544 380.62C505.21 380.611 505.705 380.26 506.038 379.423L508.09 374.347H507.163L505.75 378.019L504.256 374.347H503.302L505.3 379.027L505.066 379.522C504.913 379.792 504.715 379.882 504.427 379.882C504.247 379.882 504.04 379.837 503.86 379.738L503.662 380.422C503.905 380.548 504.229 380.62 504.544 380.62Z" fill="#434242"/>
<path d="M550.394 379H551.303V373.663H553.337V372.817H548.369V373.663H550.394V379ZM555.279 375.238V374.347H554.388V379H555.279V376.354C555.36 375.544 556.044 375.013 557.007 375.013V374.239C556.206 374.239 555.576 374.626 555.279 375.238ZM559.83 374.239C559.317 374.239 558.732 374.374 558.066 374.707L558.39 375.364C558.795 375.157 559.245 374.977 559.704 374.977C560.631 374.977 560.901 375.598 560.901 376.183V376.327C560.451 376.174 559.956 376.075 559.497 376.075C558.471 376.075 557.634 376.696 557.634 377.623C557.634 378.532 558.363 379.108 559.353 379.108C559.92 379.108 560.559 378.847 560.901 378.361V379H561.774V376.183C561.774 375.031 561.081 374.239 559.83 374.239ZM559.524 378.406C558.939 378.406 558.489 378.1 558.489 377.596C558.489 377.092 559.011 376.741 559.632 376.741C560.091 376.741 560.523 376.804 560.901 376.921V377.542C560.748 378.118 560.1 378.406 559.524 378.406ZM565.429 374.239C564.799 374.239 564.232 374.563 563.953 375.022V374.347H563.062V379H563.953V375.985C564.025 375.436 564.583 375.013 565.231 375.013C565.861 375.013 566.302 375.499 566.302 376.192V379H567.175V376.039C567.175 374.986 566.455 374.239 565.429 374.239ZM570.133 379.108C571.15 379.108 571.897 378.55 571.897 377.668C571.897 376.741 571.078 376.489 570.313 376.264C569.53 376.021 569.242 375.913 569.242 375.553C569.242 375.202 569.602 375.004 570.061 375.004C570.466 375.004 570.934 375.157 571.384 375.436L571.78 374.779C571.276 374.446 570.664 374.239 570.061 374.239C569.071 374.239 568.36 374.797 568.369 375.652C568.369 376.408 568.9 376.714 569.971 377.011C570.547 377.173 571.024 377.308 571.024 377.74C571.024 378.1 570.664 378.343 570.142 378.343C569.593 378.343 569.062 378.136 568.567 377.776L568.144 378.415C568.702 378.865 569.449 379.108 570.133 379.108ZM574.885 374.239C574.372 374.239 573.787 374.374 573.121 374.707L573.445 375.364C573.85 375.157 574.3 374.977 574.759 374.977C575.686 374.977 575.956 375.598 575.956 376.183V376.327C575.506 376.174 575.011 376.075 574.552 376.075C573.526 376.075 572.689 376.696 572.689 377.623C572.689 378.532 573.418 379.108 574.408 379.108C574.975 379.108 575.614 378.847 575.956 378.361V379H576.829V376.183C576.829 375.031 576.136 374.239 574.885 374.239ZM574.579 378.406C573.994 378.406 573.544 378.1 573.544 377.596C573.544 377.092 574.066 376.741 574.687 376.741C575.146 376.741 575.578 376.804 575.956 376.921V377.542C575.803 378.118 575.155 378.406 574.579 378.406ZM580.314 379.108C581.007 379.108 581.61 378.82 582.06 378.361L581.457 377.812C581.169 378.136 580.755 378.334 580.323 378.334C579.468 378.334 578.766 377.578 578.766 376.669C578.766 375.769 579.468 375.013 580.314 375.013C580.746 375.013 581.151 375.202 581.43 375.517L582.033 374.959C581.592 374.518 580.989 374.239 580.323 374.239C578.991 374.239 577.866 375.346 577.866 376.669C577.866 377.992 578.991 379.108 580.314 379.108ZM585.191 378.163C585.092 378.262 584.912 378.334 584.714 378.334C584.453 378.334 584.237 378.1 584.237 377.776V375.103H585.335V374.347H584.237V373.069H583.364V374.347H582.662V375.103H583.364V377.839C583.364 378.586 583.868 379.108 584.588 379.108C584.921 379.108 585.263 378.982 585.515 378.775L585.191 378.163Z" fill="#434242"/>
<path d="M634.889 379.099C636.347 379.099 637.139 378.307 637.139 377.263C637.139 376.156 636.284 375.742 635.051 375.454C634.034 375.211 633.503 375.013 633.503 374.437C633.503 373.942 633.989 373.501 634.682 373.501C635.312 373.501 635.933 373.78 636.455 374.257L636.977 373.573C636.383 373.051 635.672 372.7 634.718 372.7C633.476 372.7 632.576 373.483 632.576 374.518C632.576 375.634 633.413 376.012 634.673 376.309C635.708 376.543 636.221 376.768 636.221 377.353C636.221 377.848 635.78 378.298 634.925 378.298C634.088 378.298 633.44 377.956 632.891 377.434L632.342 378.109C632.999 378.739 633.854 379.099 634.889 379.099ZM640.812 374.239C640.092 374.239 639.516 374.581 639.156 375.148V374.347H638.274V380.548H639.156V378.19C639.516 378.766 640.092 379.108 640.812 379.108C642.036 379.108 642.954 378.1 642.954 376.669C642.954 375.247 642.036 374.239 640.812 374.239ZM640.596 378.334C639.759 378.334 639.156 377.641 639.156 376.669C639.156 375.697 639.759 375.013 640.596 375.013C641.451 375.013 642.054 375.697 642.054 376.669C642.054 377.641 641.451 378.334 640.596 378.334ZM646.163 378.316C645.362 378.316 644.795 377.758 644.678 376.984H648.341C648.341 375.319 647.522 374.239 646.1 374.239C644.813 374.239 643.778 375.265 643.778 376.66C643.778 378.091 644.876 379.108 646.172 379.108C646.829 379.108 647.639 378.829 648.053 378.388L647.495 377.812C647.216 378.1 646.649 378.316 646.163 378.316ZM646.136 375.031C646.937 375.031 647.378 375.553 647.477 376.273H644.687C644.831 375.517 645.416 375.031 646.136 375.031ZM651.741 374.239C651.111 374.239 650.544 374.563 650.265 375.022V374.347H649.374V379H650.265V375.985C650.337 375.436 650.895 375.013 651.543 375.013C652.173 375.013 652.614 375.499 652.614 376.192V379H653.487V376.039C653.487 374.986 652.767 374.239 651.741 374.239ZM656.939 378.163C656.84 378.262 656.66 378.334 656.462 378.334C656.201 378.334 655.985 378.1 655.985 377.776V375.103H657.083V374.347H655.985V373.069H655.112V374.347H654.41V375.103H655.112V377.839C655.112 378.586 655.616 379.108 656.336 379.108C656.669 379.108 657.011 378.982 657.263 378.775L656.939 378.163Z" fill="#434242"/>
<path d="M701.675 379H702.584V376.849H704.276C705.581 376.849 706.571 376.012 706.571 374.833C706.571 373.654 705.581 372.817 704.276 372.817H701.675V379ZM702.584 376.003V373.663H704.15C705.041 373.663 705.644 374.104 705.644 374.833C705.644 375.562 705.041 376.003 704.15 376.003H702.584ZM709.698 379.108C711.021 379.108 712.137 377.992 712.137 376.669C712.137 375.346 711.021 374.239 709.698 374.239C708.366 374.239 707.241 375.346 707.241 376.669C707.241 377.992 708.366 379.108 709.698 379.108ZM709.698 378.334C708.843 378.334 708.132 377.578 708.132 376.669C708.132 375.769 708.843 375.013 709.698 375.013C710.535 375.013 711.246 375.769 711.246 376.669C711.246 377.578 710.535 378.334 709.698 378.334ZM715.357 378.163C715.258 378.262 715.078 378.334 714.88 378.334C714.619 378.334 714.403 378.1 714.403 377.776V375.103H715.501V374.347H714.403V373.069H713.53V374.347H712.828V375.103H713.53V377.839C713.53 378.586 714.034 379.108 714.754 379.108C715.087 379.108 715.429 378.982 715.681 378.775L715.357 378.163ZM718.722 378.316C717.921 378.316 717.354 377.758 717.237 376.984H720.9C720.9 375.319 720.081 374.239 718.659 374.239C717.372 374.239 716.337 375.265 716.337 376.66C716.337 378.091 717.435 379.108 718.731 379.108C719.388 379.108 720.198 378.829 720.612 378.388L720.054 377.812C719.775 378.1 719.208 378.316 718.722 378.316ZM718.695 375.031C719.496 375.031 719.937 375.553 720.036 376.273H717.246C717.39 375.517 717.975 375.031 718.695 375.031ZM724.3 374.239C723.67 374.239 723.103 374.563 722.824 375.022V374.347H721.933V379H722.824V375.985C722.896 375.436 723.454 375.013 724.102 375.013C724.732 375.013 725.173 375.499 725.173 376.192V379H726.046V376.039C726.046 374.986 725.326 374.239 724.3 374.239ZM729.499 378.163C729.4 378.262 729.22 378.334 729.022 378.334C728.761 378.334 728.545 378.1 728.545 377.776V375.103H729.643V374.347H728.545V373.069H727.672V374.347H726.97V375.103H727.672V377.839C727.672 378.586 728.176 379.108 728.896 379.108C729.229 379.108 729.571 378.982 729.823 378.775L729.499 378.163ZM731.172 373.573C731.46 373.573 731.703 373.321 731.703 373.033C731.703 372.754 731.46 372.502 731.172 372.502C730.866 372.502 730.632 372.754 730.632 373.033C730.632 373.321 730.866 373.573 731.172 373.573ZM730.722 379H731.613V374.347H730.722V379ZM734.855 374.239C734.342 374.239 733.757 374.374 733.091 374.707L733.415 375.364C733.82 375.157 734.27 374.977 734.729 374.977C735.656 374.977 735.926 375.598 735.926 376.183V376.327C735.476 376.174 734.981 376.075 734.522 376.075C733.496 376.075 732.659 376.696 732.659 377.623C732.659 378.532 733.388 379.108 734.378 379.108C734.945 379.108 735.584 378.847 735.926 378.361V379H736.799V376.183C736.799 375.031 736.106 374.239 734.855 374.239ZM734.549 378.406C733.964 378.406 733.514 378.1 733.514 377.596C733.514 377.092 734.036 376.741 734.657 376.741C735.116 376.741 735.548 376.804 735.926 376.921V377.542C735.773 378.118 735.125 378.406 734.549 378.406ZM738.087 379H738.969V372.709H738.087V379Z" fill="#434242"/>
<path d="M823.815 392.848C825.935 393.652 827.524 392.937 828.1 391.419C828.711 389.809 827.696 388.735 826.061 387.636C824.716 386.721 824.053 386.14 824.371 385.303C824.644 384.583 825.594 384.209 826.602 384.592C827.518 384.939 828.268 385.688 828.764 386.669L829.9 385.963C829.324 384.876 828.484 383.973 827.096 383.447C825.29 382.761 823.549 383.404 822.978 384.909C822.362 386.532 823.371 387.544 825.04 388.671C826.416 389.582 827.038 390.192 826.715 391.043C826.442 391.763 825.552 392.174 824.309 391.703C823.092 391.241 822.338 390.386 821.827 389.324L820.656 390.003C821.264 391.281 822.309 392.277 823.815 392.848ZM833.011 394.779C832.813 394.868 832.511 394.874 832.223 394.765C831.843 394.621 831.658 394.161 831.837 393.69L833.312 389.802L834.909 390.408L835.326 389.308L833.729 388.703L834.434 386.844L833.164 386.362L832.459 388.221L831.438 387.834L831.021 388.933L832.042 389.321L830.533 393.3C830.121 394.386 830.566 395.424 831.613 395.821C832.097 396.005 832.664 396.01 833.145 395.848L833.011 394.779ZM840.463 391.077C839.717 390.794 838.792 390.668 837.639 390.785L837.748 391.919C838.451 391.842 839.205 391.828 839.873 392.081C841.221 392.593 841.271 393.645 840.948 394.496L840.869 394.705C840.299 394.234 839.633 393.817 838.966 393.564C837.474 392.998 835.914 393.439 835.402 394.788C834.901 396.11 835.643 397.35 837.083 397.896C837.908 398.209 838.981 398.182 839.747 397.664L839.394 398.593L840.664 399.075L842.218 394.977C842.854 393.302 842.283 391.768 840.463 391.077ZM837.719 396.969C836.868 396.646 836.383 395.953 836.661 395.22C836.939 394.487 837.892 394.265 838.795 394.607C839.462 394.86 840.056 395.19 840.541 395.569L840.199 396.472C839.658 397.226 838.557 397.287 837.719 396.969ZM846.822 400.018C846.623 400.107 846.322 400.113 846.034 400.004C845.654 399.86 845.469 399.4 845.648 398.929L847.123 395.041L848.72 395.647L849.137 394.547L847.54 393.942L848.245 392.083L846.975 391.601L846.27 393.46L845.249 393.073L844.832 394.172L845.853 394.559L844.343 398.539C843.931 399.625 844.376 400.663 845.424 401.06C845.908 401.243 846.475 401.249 846.956 401.087L846.822 400.018ZM851.195 403.249C852.674 403.81 854.068 403.411 854.555 402.128C855.067 400.78 854.014 399.961 853.026 399.212C852.021 398.427 851.662 398.111 851.86 397.587C852.054 397.076 852.687 396.987 853.355 397.24C853.944 397.464 854.54 397.945 855.04 398.599L855.979 397.862C855.429 397.099 854.654 396.46 853.777 396.128C852.337 395.582 850.995 396.001 850.536 397.249C850.119 398.349 850.722 399.087 852.116 400.11C852.865 400.663 853.484 401.123 853.246 401.751C853.047 402.275 852.389 402.429 851.63 402.141C850.832 401.839 850.174 401.244 849.652 400.448L848.684 401.144C849.248 402.106 850.2 402.872 851.195 403.249Z" fill="#191A1B"/>
<path d="M102 359.95L102 358.536L98.654 358.536L98.654 355.904C98.654 353.874 97.352 352.334 95.518 352.334C93.684 352.334 92.382 353.874 92.382 355.904L92.382 359.95L102 359.95ZM97.338 358.536L93.698 358.536L93.698 356.1C93.698 354.714 94.384 353.776 95.518 353.776C96.652 353.776 97.338 354.714 97.338 356.1L97.338 358.536ZM94.594 347.162C94.594 347.96 94.804 348.87 95.322 349.906L96.344 349.402C96.022 348.772 95.742 348.072 95.742 347.358C95.742 345.916 96.708 345.496 97.618 345.496L97.842 345.496C97.604 346.196 97.45 346.966 97.45 347.68C97.45 349.276 98.416 350.578 99.858 350.578C101.272 350.578 102.168 349.444 102.168 347.904C102.168 347.022 101.762 346.028 101.006 345.496L102 345.496L102 344.138L97.618 344.138C95.826 344.138 94.594 345.216 94.594 347.162ZM101.076 347.638C101.076 348.548 100.6 349.248 99.816 349.248C99.032 349.248 98.486 348.436 98.486 347.47C98.486 346.756 98.584 346.084 98.766 345.496L99.732 345.496C100.628 345.734 101.076 346.742 101.076 347.638ZM94.594 337.752C94.594 338.732 95.098 339.614 95.812 340.048L94.762 340.048L94.762 341.434L102 341.434L102 340.048L97.31 340.048C96.456 339.936 95.798 339.068 95.798 338.06C95.798 337.08 96.554 336.394 97.632 336.394L102 336.394L102 335.036L97.394 335.036C95.756 335.036 94.594 336.156 94.594 337.752ZM100.936 329.035C100.936 330.281 100.068 331.163 98.864 331.345L98.864 325.647C96.274 325.647 94.594 326.921 94.594 329.133C94.594 331.135 96.19 332.745 98.36 332.745C100.586 332.745 102.168 331.037 102.168 329.021C102.168 327.999 101.734 326.739 101.048 326.095L100.152 326.963C100.6 327.397 100.936 328.279 100.936 329.035ZM95.826 329.077C95.826 327.831 96.638 327.145 97.758 326.991L97.758 331.331C96.582 331.107 95.826 330.197 95.826 329.077ZM102 323.34L102 321.968L92.214 321.968L92.214 323.34L102 323.34Z" fill="#191A1B"/>
<path d="M339.6 543C292.2 476.5 339.6 349.2 339.6 349.2" stroke="black" stroke-miterlimit="10"/>
<path d="M323.4 534.9L339.5 543C339.5 543 335.6 530.7 338.7 524.1" stroke="black" stroke-miterlimit="10"/>
<path d="M406.013 553.127C406.013 553.127 372.883 551.168 356.099 562.608C339.316 574.048 329.051 589.314 359.529 605.657C393.679 622.816 437.153 611.96 444.496 607.408C451.839 602.972 459.415 593.517 456.268 579.392C453.121 565.384 437.969 557.213 420.836 553.128" stroke="black" stroke-miterlimit="10"/>
<path d="M405.828 557.018C405.828 557.018 376.351 555.576 362.08 565.088C347.81 574.601 338.381 590.338 364.296 603.927C393.332 618.196 418.564 611.997 429.639 609.475C438.5 607.458 453.358 592.974 450.682 581.229C448.007 569.581 433.132 558.397 418.564 555" stroke="#E9E9E9" stroke-miterlimit="10"/>
<rect x="356" y="571" width="82" height="20" fill="#019D7C"/>
<path d="M371.119 578.504L369.375 582.672L367.631 578.504H366.527L368.823 584H369.935L372.231 578.504H371.119ZM373.423 579.24C373.727 579.24 373.975 578.976 373.975 578.68C373.975 578.384 373.727 578.128 373.423 578.128C373.111 578.128 372.863 578.384 372.863 578.68C372.863 578.976 373.111 579.24 373.423 579.24ZM372.927 584H373.903V579.864H372.927V584ZM376.909 583.232C376.317 583.232 375.885 582.832 375.765 582.264H378.885C378.885 580.736 378.141 579.768 376.861 579.768C375.685 579.768 374.757 580.68 374.757 581.92C374.757 583.192 375.733 584.096 376.917 584.096C377.517 584.096 378.237 583.84 378.597 583.456L377.981 582.816C377.749 583.056 377.293 583.232 376.909 583.232ZM376.901 580.632C377.485 580.632 377.837 581 377.949 581.52H375.773C375.917 580.976 376.357 580.632 376.901 580.632ZM380.584 584H381.472L382.352 581.168L383.24 584H384.128L385.52 579.864H384.544L383.688 582.688L382.76 579.864H381.944L381.024 582.688L380.16 579.864H379.184L380.584 584ZM388.609 584H389.609V580.328L391.417 583.68L393.233 580.328V584H394.225V578.504H393.233L391.417 581.856L389.609 578.504H388.609V584ZM397.339 583.232C396.747 583.232 396.315 582.832 396.195 582.264H399.315C399.315 580.736 398.571 579.768 397.291 579.768C396.115 579.768 395.187 580.68 395.187 581.92C395.187 583.192 396.163 584.096 397.347 584.096C397.947 584.096 398.667 583.84 399.027 583.456L398.411 582.816C398.179 583.056 397.723 583.232 397.339 583.232ZM397.331 580.632C397.915 580.632 398.267 581 398.379 581.52H396.203C396.347 580.976 396.787 580.632 397.331 580.632ZM401.161 580.664V579.864H400.185V584H401.161V581.912C401.161 581.128 401.753 580.6 402.641 580.6V579.768C401.961 579.768 401.425 580.112 401.161 580.664ZM405.356 584.096C406.012 584.096 406.564 583.824 406.964 583.4L406.308 582.832C406.076 583.096 405.724 583.264 405.364 583.264C404.684 583.264 404.116 582.656 404.116 581.928C404.116 581.208 404.684 580.6 405.364 580.6C405.716 580.6 406.06 580.768 406.284 581.016L406.94 580.44C406.548 580.032 405.996 579.768 405.372 579.768C404.164 579.768 403.148 580.752 403.148 581.928C403.148 583.104 404.164 584.096 405.356 584.096ZM409.987 579.768C409.435 579.768 408.947 580.032 408.699 580.432V578.408H407.723V584H408.699V581.496C408.699 581 409.155 580.6 409.707 580.6C410.219 580.6 410.579 581 410.579 581.56V584H411.523V581.368C411.523 580.432 410.891 579.768 409.987 579.768ZM414.383 579.768C413.863 579.768 413.319 579.912 412.735 580.2L413.071 580.88C413.423 580.704 413.799 580.568 414.191 580.568C414.943 580.568 415.207 581.032 415.207 581.512V581.624C414.831 581.48 414.423 581.4 414.047 581.4C413.119 581.4 412.359 581.96 412.359 582.776C412.359 583.576 413.023 584.096 413.903 584.096C414.383 584.096 414.903 583.888 415.207 583.504V584H416.159V581.512C416.159 580.464 415.479 579.768 414.383 579.768ZM414.119 583.384C413.655 583.384 413.311 583.136 413.311 582.744C413.311 582.352 413.703 582.08 414.191 582.08C414.559 582.08 414.903 582.136 415.207 582.24V582.704C415.095 583.144 414.591 583.384 414.119 583.384ZM419.472 579.768C418.928 579.768 418.448 580.032 418.192 580.416V579.864H417.216V584H418.192V581.384C418.256 580.944 418.68 580.6 419.192 580.6C419.704 580.6 420.064 581 420.064 581.56V584H421.008V581.368C421.008 580.432 420.376 579.768 419.472 579.768ZM424.131 583.112C424.043 583.2 423.891 583.264 423.723 583.264C423.491 583.264 423.315 583.064 423.315 582.784V580.672H424.251V579.864H423.315V578.728H422.363V579.864H421.763V580.672H422.363V582.904C422.363 583.6 422.843 584.096 423.531 584.096C423.843 584.096 424.179 583.968 424.411 583.768L424.131 583.112ZM426.697 584.096C427.665 584.096 428.321 583.584 428.321 582.792C428.321 581.928 427.569 581.688 426.873 581.496C426.241 581.312 426.025 581.232 426.025 580.968C426.025 580.736 426.289 580.6 426.633 580.6C426.993 580.6 427.417 580.728 427.809 580.976L428.217 580.264C427.769 579.968 427.201 579.768 426.633 579.768C425.713 579.768 425.073 580.296 425.073 581.072C425.081 581.808 425.649 582.064 426.545 582.296C427.017 582.424 427.377 582.528 427.377 582.848C427.377 583.104 427.105 583.272 426.713 583.272C426.193 583.272 425.729 583.08 425.329 582.792L424.889 583.472C425.385 583.872 426.065 584.096 426.697 584.096Z" fill="white"/>
<path d="M822.7 538.025L804.7 537.025C804.7 537.025 814.2 528.325 814.8 521.125" stroke="black" stroke-miterlimit="10"/>
<path d="M740.5 402.5C740.5 402.5 808.1 378.825 860.1 430.325C912.1 481.825 832.1 526.525 805.1 536.825" stroke="black" stroke-miterlimit="10"/>
<path d="M544 466.384L573.712 464H620.755L750 466.384" stroke="#E8E8E8"/>
<path d="M544 504.521L573.712 502.137H620.755L750 504.521" stroke="#E8E8E8"/>
<path d="M544 546.471L573.712 544.087H620.755L750 546.471" stroke="#E8E8E8"/>
<path d="M544 591.282L573.712 588.898H620.755L750 591.282" stroke="#E8E8E8"/>
<path d="M553.557 499.599L573.346 481.039L612.924 488.681L632.713 487.317L652.502 478.582L670.602 483.222L692.081 482.131L711.387 488.135L731.176 483.222L750 564.013" stroke="#019D7C"/>
<path d="M573.346 481.039L553.557 499.599V586.667H750V564.013L731.176 483.222L711.387 488.135L692.081 482.131L670.602 483.222L652.502 478.582L632.713 487.317L612.924 488.681L573.346 481.039Z" fill="url(#paint0_linear_3_217)"/>
<path d="M556.742 602H567.361" stroke="#C4C4C4" stroke-width="4.5" stroke-linecap="round"/>
<path d="M600 602H610.619" stroke="#C4C4C4" stroke-width="4.5" stroke-linecap="round"/>
<path d="M643 602H653.619" stroke="#C4C4C4" stroke-width="4.5" stroke-linecap="round"/>
<path d="M686 602H696.619" stroke="#C4C4C4" stroke-width="4.5" stroke-linecap="round"/>
<path d="M729 602H739.619" stroke="#C4C4C4" stroke-width="4.5" stroke-linecap="round"/>
<defs>
<linearGradient id="paint0_linear_3_217" x1="651.778" y1="478.582" x2="651.778" y2="586.667" gradientUnits="userSpaceOnUse">
<stop stop-color="#019D7C" stop-opacity="0.3"/>
<stop offset="0.477083" stop-color="#019D7C" stop-opacity="0.0975"/>
<stop offset="1" stop-color="#019D7C" stop-opacity="0"/>
</linearGradient>
</defs>
</svg>
