<svg width="858" height="765" viewBox="0 0 858 765" fill="none" xmlns="http://www.w3.org/2000/svg">
<rect y="451.714" width="858" height="313.286" fill="#F2D8FF"/>
<rect width="858" height="451.714" fill="#F7F7FC"/>
<path d="M141.164 263.379L142.296 250.288C142.324 249.969 142.357 249.658 142.421 249.344C142.921 246.902 145.996 235.625 160.401 234.327C176.634 232.992 223.545 230.268 225.712 230.142C225.781 230.138 225.824 230.135 225.894 230.13L263.09 227.588L299.758 225.675L349.703 223.398L398.293 221.759H461.243H507.033L544.966 222.579L578.111 223.034L614.599 225.584L646.932 228.134L675.652 230.957L697.238 234.236C703.831 235.238 709.431 239.791 711.779 246.075C712.953 249.08 714.037 252.905 714.94 257.732C718.453 275.616 719.642 298.97 719.799 302.316C719.812 302.597 719.817 302.862 719.817 303.143V338.057V378.129L718.823 404.175L716.927 443.882L715.03 480.22L712.953 509.909L711.147 535.5L710.136 549.512C710.087 550.188 710.008 550.857 709.84 551.513C709.037 554.647 705.819 564.276 696.245 566.1C685.085 568.227 667.258 570.439 666.3 570.558C666.269 570.561 666.244 570.565 666.213 570.569L604.935 578.395L542.617 584.223L479.667 587.957H378.243L305.99 585.225L256.948 580.216L212.242 575.663L181.535 570.745L166.617 568.09C166.327 568.038 166.048 567.995 165.756 567.949C162.645 567.457 143.482 563.935 143.151 551.802C142.801 539.029 142.114 519.185 142.069 517.898C142.067 517.852 142.066 517.809 142.064 517.764L140.712 485.32L139.628 449.984L138.635 416.925V390.423V358.275V333.23L139.267 299.807L141.164 263.379Z" fill="white" stroke="black" stroke-width="1.5" stroke-miterlimit="10"/>
<path d="M123.733 269.572C119.668 274.429 108.83 285.509 118.314 301.902C119.217 303.463 123.733 308.732 118.314 310.554L113.798 311.92C115.905 313.134 118.709 315.563 119.217 316.929C119.668 318.143 119.173 320.227 118.314 322.393C117.41 324.67 115.153 330.589 114.701 333.777C113.948 338.179 113.798 347.711 119.217 350.625" stroke="black"/>
<path d="M279.979 533.679H209.442C201.043 533.679 194.179 526.757 194.179 518.288V291.338C194.179 282.868 201.043 275.947 209.442 275.947H279.979C288.378 275.947 295.242 282.868 295.242 291.338V518.288C295.242 526.757 288.378 533.679 279.979 533.679Z" fill="#F3F4F4"/>
<path d="M212.061 344.979L216.848 346.527C218.293 346.982 219.919 347.164 221.454 346.982L242.046 344.887" stroke="#DFDFE0" stroke-width="5" stroke-miterlimit="10"/>
<path d="M212.874 332.684C212.874 332.684 224.434 329.314 232.563 331.045C240.691 332.775 266.973 332.684 266.973 332.684" stroke="#DFDFE0" stroke-width="5" stroke-miterlimit="10"/>
<path d="M212.874 316.929C212.874 316.929 230.034 317.657 231.298 317.657C232.563 317.657 251.439 317.202 254.329 316.929C257.219 316.655 272.573 316.929 272.573 316.929" stroke="#DFDFE0" stroke-width="5" stroke-miterlimit="10"/>
<path d="M212.061 301.538C212.061 301.538 225.789 304.088 229.583 304.088C233.376 304.088 264.806 302.813 264.806 302.813" stroke="#DFDFE0" stroke-width="5" stroke-miterlimit="10"/>
<path d="M158.242 347.294C158.075 346.789 158.055 346.249 158.055 345.718V339.413V337.41C158.055 337.41 158.055 337.41 158.055 337.41C158.055 337.409 158.055 334.677 161.487 334.404C164.114 334.195 167.376 334.306 168.762 334.37C169.212 334.39 169.659 334.383 170.108 334.4C171.453 334.452 174.354 334.889 174.492 337.683C174.622 340.295 174.566 343.235 174.523 344.69C174.506 345.3 174.558 345.918 174.455 346.519C174.258 347.669 173.379 349.517 169.796 349.704C165.958 349.838 163.38 349.775 162.276 349.733C161.869 349.717 161.461 349.725 161.058 349.664C160.242 349.54 158.83 349.066 158.242 347.294Z" stroke="#CDCDCD" stroke-width="0.85" stroke-miterlimit="10"/>
<path d="M162.209 349.795C162.209 349.795 166.635 340.597 170.338 348.885" stroke="#CDCDCD" stroke-width="0.85" stroke-miterlimit="10"/>
<path d="M166.635 343.329C167.932 343.329 168.983 342.269 168.983 340.961C168.983 339.654 167.932 338.594 166.635 338.594C165.338 338.594 164.287 339.654 164.287 340.961C164.287 342.269 165.338 343.329 166.635 343.329Z" stroke="#CDCDCD" stroke-width="0.85" stroke-miterlimit="10"/>
<path d="M158.055 317.192V309.815C158.055 309.815 157.965 306.536 161.577 306.081C164.648 305.626 170.067 305.99 171.512 306.081C171.783 306.081 172.144 306.172 172.415 306.263C173.228 306.627 174.583 307.356 174.854 308.904C175.125 310.999 174.944 318.558 174.492 319.468C174.222 319.924 173.499 321.745 169.525 321.654C167.177 321.654 163.203 321.654 162.39 321.654V321.654C161.975 321.654 161.559 321.608 161.165 321.476C159.963 321.073 158.055 320.092 158.055 317.192Z" stroke="black" stroke-miterlimit="10"/>
<path d="M161.397 318.558L163.263 312.398C163.335 312.162 163.552 312 163.799 312V312C164.079 312 164.315 312.207 164.353 312.484L165.113 317.999C165.157 318.319 165.431 318.558 165.754 318.558V318.558C166.014 318.558 166.249 318.402 166.35 318.162L169.794 309.975C169.896 309.733 170.171 309.615 170.417 309.708V309.708C170.59 309.773 170.711 309.931 170.73 310.115L171.602 318.558" stroke="black" stroke-width="0.9" stroke-miterlimit="10"/>
<path d="M168.08 291.145V287.593C168.08 287.593 167.989 286.136 168.983 285.954C169.976 285.772 173.86 285.954 173.86 285.954C173.86 285.954 175.215 285.863 175.305 287.229C175.305 287.867 175.305 291.6 175.305 291.6C175.305 291.6 175.395 292.967 173.408 293.058C171.873 293.058 169.254 293.058 169.254 293.058C169.254 293.058 168.08 292.966 168.08 291.145Z" stroke="#CDCDCD" stroke-width="0.85" stroke-miterlimit="10"/>
<path d="M158.055 291.145V287.593C158.055 287.593 157.964 286.136 158.958 285.954C159.951 285.772 163.835 285.954 163.835 285.954C163.835 285.954 165.19 285.863 165.28 287.229C165.28 287.867 165.28 291.6 165.28 291.6C165.28 291.6 165.37 292.967 163.383 293.058C161.848 293.058 159.229 293.058 159.229 293.058C159.229 293.058 158.055 292.966 158.055 291.145Z" stroke="#CDCDCD" stroke-width="0.85" stroke-miterlimit="10"/>
<path d="M168.17 281.219V277.667C168.17 277.667 168.08 276.21 169.073 276.027C170.067 275.845 173.95 276.027 173.95 276.027C173.95 276.027 175.305 275.936 175.395 277.302C175.395 277.94 175.395 281.674 175.395 281.674C175.395 281.674 175.486 283.04 173.499 283.131C171.963 283.131 169.344 283.131 169.344 283.131C169.344 283.131 168.17 283.04 168.17 281.219Z" stroke="#CDCDCD" stroke-width="0.85" stroke-miterlimit="10"/>
<path d="M158.055 281.219V277.667C158.055 277.667 157.964 276.21 158.958 276.027C159.951 275.845 163.835 276.027 163.835 276.027C163.835 276.027 165.19 275.936 165.28 277.302C165.28 277.94 165.28 281.674 165.28 281.674C165.28 281.674 165.37 283.04 163.383 283.131C161.848 283.131 159.229 283.131 159.229 283.131C159.229 283.131 158.055 283.04 158.055 281.219Z" stroke="#CDCDCD" stroke-width="0.85" stroke-miterlimit="10"/>
<path d="M332.414 283.335V280.581H322.676V292.947H332.414V290.193H325.754V288.015H331.802V285.261H325.754V283.335H332.414ZM339.947 283.425C338.777 283.425 337.787 283.911 337.211 284.703V283.641H334.169V292.947H337.211V287.529L337.229 287.583C337.229 286.665 337.931 285.963 338.867 285.963C339.803 285.963 340.451 286.683 340.451 287.709V292.947H343.367V287.025C343.367 284.919 341.945 283.425 339.947 283.425ZM351.991 283.641V284.775C351.379 283.983 350.191 283.425 349.021 283.425C346.717 283.425 344.935 285.243 344.935 287.835C344.935 290.427 346.717 292.263 349.021 292.263C350.173 292.263 351.253 291.777 351.991 290.931V291.813C351.991 292.803 350.965 293.505 349.435 293.505C348.373 293.505 347.293 293.163 346.717 292.677L345.691 294.801C346.645 295.521 348.229 296.043 349.903 296.043C352.927 296.043 355.051 294.351 355.051 291.957V283.641H351.991ZM350.029 289.725C348.895 289.725 348.067 288.933 348.067 287.835C348.067 286.737 348.895 285.963 350.029 285.963C351.181 285.963 351.991 286.737 351.991 287.835C351.991 288.933 351.181 289.725 350.029 289.725ZM361.464 283.425C360.024 283.425 358.692 283.839 357.396 284.487L358.35 286.395C359.142 285.981 359.808 285.711 360.69 285.711C361.968 285.711 362.724 286.431 362.724 287.421V287.547C362.004 287.259 361.23 287.097 360.546 287.097C358.35 287.097 356.604 288.375 356.604 290.193C356.604 291.957 358.17 293.163 360.15 293.163C361.104 293.163 362.076 292.803 362.724 292.155V292.947H365.658V287.421C365.658 284.937 363.858 283.425 361.464 283.425ZM360.888 291.291C360.078 291.291 359.502 290.823 359.502 290.103C359.502 289.383 360.15 288.861 360.978 288.861C361.608 288.861 362.256 288.987 362.724 289.167V290.157C362.598 290.859 361.788 291.291 360.888 291.291ZM374.262 283.641V284.775C373.65 283.983 372.462 283.425 371.292 283.425C368.988 283.425 367.206 285.243 367.206 287.835C367.206 290.427 368.988 292.263 371.292 292.263C372.444 292.263 373.524 291.777 374.262 290.931V291.813C374.262 292.803 373.236 293.505 371.706 293.505C370.644 293.505 369.564 293.163 368.988 292.677L367.962 294.801C368.916 295.521 370.5 296.043 372.174 296.043C375.198 296.043 377.322 294.351 377.322 291.957V283.641H374.262ZM372.3 289.725C371.166 289.725 370.338 288.933 370.338 287.835C370.338 286.737 371.166 285.963 372.3 285.963C373.452 285.963 374.262 286.737 374.262 287.835C374.262 288.933 373.452 289.725 372.3 289.725ZM383.844 290.697C382.854 290.697 382.116 290.067 381.828 289.131H388.47C388.47 285.585 386.742 283.425 383.79 283.425C380.982 283.425 378.93 285.441 378.93 288.267C378.93 291.129 381.054 293.163 383.934 293.163C385.32 293.163 386.922 292.569 387.75 291.723L385.95 289.905C385.392 290.391 384.564 290.697 383.844 290.697ZM383.844 285.873C384.762 285.873 385.392 286.431 385.644 287.277H381.864C382.188 286.413 382.926 285.873 383.844 285.873ZM403.917 292.947H407.373L402.477 280.581H399.021L394.125 292.947H397.581L398.301 291.147H403.197L403.917 292.947ZM399.255 288.735L400.749 284.937L402.243 288.735H399.255ZM408.705 292.947H411.783V280.581H408.705V292.947ZM414.838 288.303H416.908L417.574 280.581H414.154L414.838 288.303ZM415.882 293.163C416.872 293.163 417.7 292.317 417.7 291.273C417.7 290.301 416.872 289.455 415.882 289.455C414.802 289.455 413.974 290.301 413.974 291.273C413.974 292.317 414.802 293.163 415.882 293.163Z" fill="black"/>
<rect x="573.957" y="277.768" width="51.48" height="18.2143" fill="#F1F1F1"/>
<rect x="638.984" y="277.768" width="51.48" height="18.2143" fill="#191A1B"/>
<path d="M321.524 327.857L470.997 326.036H596.987L687.755 327.857" stroke="#E3E0E0"/>
<path d="M321.524 327.857L383.842 326.947" stroke="black" stroke-width="1.5"/>
<path d="M333.713 316.852C334.723 316.852 335.643 316.422 336.303 315.732L335.423 314.912C334.993 315.402 334.383 315.712 333.713 315.712C332.443 315.712 331.373 314.612 331.373 313.292C331.373 311.982 332.443 310.882 333.713 310.882C334.373 310.882 334.993 311.192 335.413 311.682L336.303 310.852C335.643 310.172 334.723 309.742 333.713 309.742C331.753 309.742 330.103 311.362 330.103 313.292C330.103 315.222 331.753 316.852 333.713 316.852ZM339.477 311.442C338.827 311.442 338.147 311.622 337.417 311.982L337.837 312.832C338.277 312.612 338.747 312.442 339.237 312.442C340.177 312.442 340.507 313.022 340.507 313.622V313.762C340.037 313.582 339.527 313.482 339.057 313.482C337.897 313.482 336.947 314.182 336.947 315.202C336.947 316.202 337.777 316.852 338.877 316.852C339.477 316.852 340.127 316.592 340.507 316.112V316.732H341.697V313.622C341.697 312.312 340.847 311.442 339.477 311.442ZM339.147 315.962C338.567 315.962 338.137 315.652 338.137 315.162C338.137 314.672 338.627 314.332 339.237 314.332C339.697 314.332 340.127 314.402 340.507 314.532V315.112C340.367 315.662 339.737 315.962 339.147 315.962ZM348.988 311.442C348.218 311.442 347.568 311.822 347.318 312.422C346.998 311.812 346.398 311.442 345.668 311.442C345.018 311.442 344.488 311.762 344.228 312.262V311.562H343.008V316.732H344.228V313.562C344.228 312.932 344.698 312.482 345.358 312.482C345.958 312.482 346.368 312.962 346.368 313.642V316.732H347.558V313.562C347.558 312.932 348.018 312.482 348.688 312.482C349.278 312.482 349.688 312.962 349.688 313.642V316.732H350.878V313.442C350.878 312.272 350.068 311.442 348.988 311.442ZM355.248 311.442C354.478 311.442 353.858 311.792 353.448 312.382V311.562H352.228V318.452H353.448V315.912C353.858 316.502 354.478 316.852 355.248 316.852C356.618 316.852 357.618 315.732 357.618 314.142C357.618 312.562 356.618 311.442 355.248 311.442ZM354.918 315.812C354.058 315.812 353.458 315.112 353.458 314.142C353.458 313.172 354.058 312.482 354.918 312.482C355.788 312.482 356.408 313.172 356.408 314.142C356.408 315.112 355.788 315.812 354.918 315.812ZM360.971 311.442C360.321 311.442 359.641 311.622 358.911 311.982L359.331 312.832C359.771 312.612 360.241 312.442 360.731 312.442C361.671 312.442 362.001 313.022 362.001 313.622V313.762C361.531 313.582 361.021 313.482 360.551 313.482C359.391 313.482 358.441 314.182 358.441 315.202C358.441 316.202 359.271 316.852 360.371 316.852C360.971 316.852 361.621 316.592 362.001 316.112V316.732H363.191V313.622C363.191 312.312 362.341 311.442 360.971 311.442ZM360.641 315.962C360.061 315.962 359.631 315.652 359.631 315.162C359.631 314.672 360.121 314.332 360.731 314.332C361.191 314.332 361.621 314.402 362.001 314.532V315.112C361.861 315.662 361.231 315.962 360.641 315.962ZM365.132 310.782C365.512 310.782 365.822 310.452 365.822 310.082C365.822 309.712 365.512 309.392 365.132 309.392C364.742 309.392 364.432 309.712 364.432 310.082C364.432 310.452 364.742 310.782 365.132 310.782ZM364.512 316.732H365.732V311.562H364.512V316.732ZM370.93 311.562V312.332C370.56 311.782 369.89 311.442 369.16 311.442C367.82 311.442 366.83 312.452 366.83 313.892C366.83 315.332 367.82 316.352 369.16 316.352C369.9 316.352 370.52 316.022 370.93 315.472V316.142C370.93 316.922 370.29 317.412 369.27 317.412C368.66 317.412 368.04 317.202 367.68 316.872L367.23 317.762C367.74 318.162 368.56 318.452 369.45 318.452C371.03 318.452 372.15 317.512 372.15 316.182V311.562H370.93ZM369.51 315.312C368.69 315.312 368.1 314.722 368.1 313.892C368.1 313.072 368.69 312.482 369.51 312.482C370.34 312.482 370.93 313.072 370.93 313.892C370.93 314.722 370.34 315.312 369.51 315.312ZM376.336 311.442C375.656 311.442 375.056 311.772 374.736 312.252V311.562H373.516V316.732H374.736V313.462C374.816 312.912 375.346 312.482 375.986 312.482C376.626 312.482 377.076 312.982 377.076 313.682V316.732H378.256V313.442C378.256 312.272 377.466 311.442 376.336 311.442Z" fill="#191A1B"/>
<path d="M410.029 316.852C411.979 316.852 413.629 315.222 413.629 313.292C413.629 311.362 411.979 309.742 410.029 309.742C408.069 309.742 406.419 311.362 406.419 313.292C406.419 315.222 408.069 316.852 410.029 316.852ZM410.029 315.712C408.759 315.712 407.689 314.612 407.689 313.292C407.689 311.982 408.759 310.882 410.029 310.882C411.289 310.882 412.349 311.982 412.349 313.292C412.349 314.612 411.289 315.712 410.029 315.712ZM416.465 316.732H417.615L419.805 311.562H418.505L417.035 315.322L415.535 311.562H414.245L416.465 316.732ZM422.731 315.772C421.991 315.772 421.451 315.272 421.301 314.562H425.201C425.201 312.652 424.271 311.442 422.671 311.442C421.201 311.442 420.041 312.582 420.041 314.132C420.041 315.722 421.261 316.852 422.741 316.852C423.491 316.852 424.391 316.532 424.841 316.052L424.071 315.252C423.781 315.552 423.211 315.772 422.731 315.772ZM422.721 312.522C423.451 312.522 423.891 312.982 424.031 313.632H421.311C421.491 312.952 422.041 312.522 422.721 312.522ZM427.509 312.562V311.562H426.289V316.732H427.509V314.122C427.509 313.142 428.249 312.482 429.359 312.482V311.442C428.509 311.442 427.839 311.872 427.509 312.562ZM431.993 316.732H433.143L435.333 311.562H434.033L432.563 315.322L431.063 311.562H429.773L431.993 316.732ZM436.8 310.782C437.18 310.782 437.49 310.452 437.49 310.082C437.49 309.712 437.18 309.392 436.8 309.392C436.41 309.392 436.1 309.712 436.1 310.082C436.1 310.452 436.41 310.782 436.8 310.782ZM436.18 316.732H437.4V311.562H436.18V316.732ZM441.159 315.772C440.419 315.772 439.879 315.272 439.729 314.562H443.629C443.629 312.652 442.699 311.442 441.099 311.442C439.629 311.442 438.469 312.582 438.469 314.132C438.469 315.722 439.689 316.852 441.169 316.852C441.919 316.852 442.819 316.532 443.269 316.052L442.499 315.252C442.209 315.552 441.639 315.772 441.159 315.772ZM441.149 312.522C441.879 312.522 442.319 312.982 442.459 313.632H439.739C439.919 312.952 440.469 312.522 441.149 312.522ZM445.752 316.732H446.862L447.962 313.192L449.072 316.732H450.182L451.922 311.562H450.702L449.632 315.092L448.472 311.562H447.452L446.302 315.092L445.222 311.562H444.002L445.752 316.732Z" fill="#191A1B"/>
<path d="M744.083 358.868C746.201 359.678 747.786 358.965 748.357 357.445C748.964 355.834 747.948 354.756 746.315 353.651C744.97 352.732 744.307 352.149 744.623 351.31C744.894 350.589 745.841 350.217 746.848 350.603C747.763 350.953 748.513 351.704 749.01 352.689L750.143 351.983C749.566 350.893 748.725 349.987 747.339 349.456C745.535 348.766 743.798 349.406 743.231 350.913C742.62 352.538 743.629 353.553 745.297 354.686C746.673 355.602 747.295 356.214 746.974 357.066C746.703 357.787 745.816 358.197 744.574 357.722C743.358 357.257 742.604 356.399 742.092 355.334L740.925 356.011C741.534 357.294 742.579 358.293 744.083 358.868ZM753.266 360.822C753.068 360.911 752.767 360.916 752.48 360.806C752.101 360.661 751.915 360.2 752.092 359.728L753.556 355.837L755.152 356.447L755.566 355.346L753.97 354.736L754.67 352.875L753.402 352.39L752.702 354.251L751.682 353.861L751.268 354.961L752.288 355.351L750.789 359.335C750.38 360.423 750.827 361.463 751.873 361.863C752.357 362.048 752.922 362.054 753.402 361.893L753.266 360.822ZM760.697 357.129C759.952 356.844 759.028 356.715 757.878 356.83L757.989 357.967C758.691 357.89 759.443 357.878 760.11 358.134C761.457 358.649 761.509 359.703 761.188 360.555L761.11 360.764C760.54 360.291 759.875 359.872 759.208 359.617C757.717 359.047 756.161 359.486 755.653 360.836C755.155 362.159 755.899 363.403 757.337 363.953C758.161 364.268 759.232 364.243 759.996 363.726L759.646 364.656L760.914 365.141L762.457 361.04C763.088 359.363 762.515 357.824 760.697 357.129ZM757.97 363.026C757.12 362.701 756.634 362.005 756.91 361.271C757.186 360.538 758.137 360.317 759.039 360.662C759.706 360.917 760.299 361.249 760.784 361.629L760.444 362.533C759.906 363.287 758.807 363.346 757.97 363.026ZM767.063 366.099C766.865 366.188 766.564 366.193 766.276 366.083C765.897 365.938 765.711 365.477 765.889 365.006L767.353 361.114L768.948 361.724L769.362 360.623L767.767 360.013L768.467 358.152L767.198 357.667L766.498 359.528L765.478 359.138L765.064 360.239L766.084 360.629L764.586 364.612C764.177 365.7 764.623 366.74 765.669 367.14C766.153 367.325 766.719 367.332 767.198 367.17L767.063 366.099ZM771.434 369.345C772.912 369.91 774.303 369.513 774.786 368.229C775.294 366.879 774.242 366.057 773.254 365.305C772.249 364.516 771.89 364.198 772.087 363.674C772.279 363.163 772.911 363.075 773.578 363.33C774.166 363.555 774.762 364.038 775.263 364.694L776.198 363.958C775.648 363.193 774.873 362.551 773.997 362.216C772.558 361.666 771.22 362.083 770.764 363.333C770.35 364.434 770.954 365.174 772.347 366.202C773.096 366.758 773.715 367.22 773.478 367.849C773.281 368.373 772.625 368.527 771.866 368.236C771.069 367.931 770.411 367.335 769.889 366.536L768.924 367.231C769.488 368.196 770.441 368.965 771.434 369.345Z" fill="#191A1B"/>
<path d="M93.1873 327.718L93.1873 326.304L89.8413 326.304L89.8413 323.672C89.8413 321.642 88.5393 320.102 86.7053 320.102C84.8713 320.102 83.5693 321.642 83.5693 323.672L83.5693 327.718L93.1873 327.718ZM88.5253 326.304L84.8853 326.304L84.8853 323.868C84.8853 322.482 85.5713 321.544 86.7053 321.544C87.8393 321.544 88.5253 322.482 88.5253 323.868L88.5253 326.304ZM85.7813 314.93C85.7813 315.728 85.9913 316.638 86.5093 317.674L87.5313 317.17C87.2093 316.54 86.9293 315.84 86.9293 315.126C86.9293 313.684 87.8953 313.264 88.8053 313.264L89.0293 313.264C88.7913 313.964 88.6373 314.734 88.6373 315.448C88.6373 317.044 89.6033 318.346 91.0453 318.346C92.4593 318.346 93.3553 317.212 93.3553 315.672C93.3553 314.79 92.9493 313.796 92.1933 313.264L93.1873 313.264L93.1873 311.906L88.8053 311.906C87.0133 311.906 85.7813 312.984 85.7813 314.93ZM92.2633 315.406C92.2633 316.316 91.7873 317.016 91.0033 317.016C90.2193 317.016 89.6733 316.204 89.6733 315.238C89.6733 314.524 89.7713 313.852 89.9533 313.264L90.9193 313.264C91.8153 313.502 92.2633 314.51 92.2633 315.406ZM85.7813 305.52C85.7813 306.5 86.2853 307.382 86.9993 307.816L85.9493 307.816L85.9493 309.202L93.1873 309.202L93.1873 307.816L88.4973 307.816C87.6433 307.704 86.9853 306.836 86.9853 305.828C86.9853 304.848 87.7413 304.162 88.8193 304.162L93.1873 304.162L93.1873 302.804L88.5813 302.804C86.9433 302.804 85.7813 303.924 85.7813 305.52ZM92.1233 296.803C92.1233 298.049 91.2553 298.931 90.0513 299.113L90.0513 293.415C87.4613 293.415 85.7813 294.689 85.7813 296.901C85.7813 298.903 87.3773 300.513 89.5473 300.513C91.7733 300.513 93.3553 298.805 93.3553 296.789C93.3553 295.767 92.9213 294.507 92.2353 293.863L91.3393 294.731C91.7873 295.165 92.1233 296.047 92.1233 296.803ZM87.0133 296.845C87.0133 295.599 87.8253 294.913 88.9453 294.759L88.9453 299.099C87.7693 298.875 87.0133 297.965 87.0133 296.845ZM93.1873 291.108L93.1873 289.736L83.4013 289.736L83.4013 291.108L93.1873 291.108Z" fill="#191A1B"/>
<path d="M306.713 494.518C263.903 433.955 306.713 318.021 306.713 318.021" stroke="black" stroke-miterlimit="10"/>
<path d="M292.081 487.141L306.622 494.518C306.622 494.518 303.1 483.316 305.9 477.305" stroke="black" stroke-miterlimit="10"/>
<path d="M366.694 503.741C366.694 503.741 336.772 501.957 321.614 512.375C306.456 522.793 297.185 536.697 324.712 551.58C355.555 567.208 394.819 557.321 401.45 553.175C408.082 549.135 414.924 540.524 412.082 527.661C409.24 514.904 395.556 507.462 380.081 503.741" stroke="black" stroke-miterlimit="10"/>
<path d="M366.526 507.284C366.526 507.284 339.904 505.971 327.016 514.634C314.127 523.297 305.612 537.629 329.017 550.005C355.241 563 378.03 557.355 388.032 555.058C396.035 553.221 409.454 540.03 407.037 529.334C404.621 518.726 391.187 508.541 378.03 505.447" stroke="#E9E9E9" stroke-miterlimit="10"/>
<rect x="321.524" y="520.018" width="74.0589" height="18.2143" fill="#FF055E"/>
<path d="M333.502 526.897L331.758 531.065L330.014 526.897H328.91L331.206 532.393H332.318L334.614 526.897H333.502ZM335.805 527.633C336.109 527.633 336.357 527.369 336.357 527.073C336.357 526.777 336.109 526.521 335.805 526.521C335.493 526.521 335.245 526.777 335.245 527.073C335.245 527.369 335.493 527.633 335.805 527.633ZM335.309 532.393H336.285V528.257H335.309V532.393ZM339.292 531.625C338.7 531.625 338.268 531.225 338.148 530.657H341.268C341.268 529.129 340.524 528.161 339.244 528.161C338.068 528.161 337.14 529.073 337.14 530.313C337.14 531.585 338.116 532.489 339.3 532.489C339.9 532.489 340.62 532.233 340.98 531.849L340.364 531.209C340.132 531.449 339.676 531.625 339.292 531.625ZM339.284 529.025C339.868 529.025 340.22 529.393 340.332 529.913H338.156C338.3 529.369 338.74 529.025 339.284 529.025ZM342.967 532.393H343.855L344.735 529.561L345.623 532.393H346.511L347.903 528.257H346.927L346.071 531.081L345.143 528.257H344.327L343.407 531.081L342.543 528.257H341.567L342.967 532.393ZM353.599 532.489C354.407 532.489 355.143 532.145 355.671 531.593L354.967 530.937C354.623 531.329 354.135 531.577 353.599 531.577C352.583 531.577 351.727 530.697 351.727 529.641C351.727 528.593 352.583 527.713 353.599 527.713C354.127 527.713 354.623 527.961 354.959 528.353L355.671 527.689C355.143 527.145 354.407 526.801 353.599 526.801C352.031 526.801 350.711 528.097 350.711 529.641C350.711 531.185 352.031 532.489 353.599 532.489ZM358.211 528.161C357.691 528.161 357.147 528.305 356.563 528.593L356.899 529.273C357.251 529.097 357.627 528.961 358.019 528.961C358.771 528.961 359.035 529.425 359.035 529.905V530.017C358.659 529.873 358.251 529.793 357.875 529.793C356.947 529.793 356.187 530.353 356.187 531.169C356.187 531.969 356.851 532.489 357.731 532.489C358.211 532.489 358.731 532.281 359.035 531.897V532.393H359.987V529.905C359.987 528.857 359.307 528.161 358.211 528.161ZM357.947 531.777C357.483 531.777 357.139 531.529 357.139 531.137C357.139 530.745 357.531 530.473 358.019 530.473C358.387 530.473 358.731 530.529 359.035 530.633V531.097C358.923 531.537 358.419 531.777 357.947 531.777ZM365.819 528.161C365.203 528.161 364.683 528.465 364.483 528.945C364.227 528.457 363.747 528.161 363.163 528.161C362.643 528.161 362.219 528.417 362.011 528.817V528.257H361.035V532.393H362.011V529.857C362.011 529.353 362.387 528.993 362.915 528.993C363.395 528.993 363.723 529.377 363.723 529.921V532.393H364.675V529.857C364.675 529.353 365.043 528.993 365.579 528.993C366.051 528.993 366.379 529.377 366.379 529.921V532.393H367.331V529.761C367.331 528.825 366.683 528.161 365.819 528.161ZM370.827 528.161C370.211 528.161 369.715 528.441 369.387 528.913V528.257H368.411V533.769H369.387V531.737C369.715 532.209 370.211 532.489 370.827 532.489C371.923 532.489 372.723 531.593 372.723 530.321C372.723 529.057 371.923 528.161 370.827 528.161ZM370.563 531.657C369.875 531.657 369.395 531.097 369.395 530.321C369.395 529.545 369.875 528.993 370.563 528.993C371.259 528.993 371.755 529.545 371.755 530.321C371.755 531.097 371.259 531.657 370.563 531.657ZM375.406 528.161C374.886 528.161 374.342 528.305 373.758 528.593L374.094 529.273C374.446 529.097 374.822 528.961 375.214 528.961C375.966 528.961 376.23 529.425 376.23 529.905V530.017C375.854 529.873 375.446 529.793 375.07 529.793C374.142 529.793 373.382 530.353 373.382 531.169C373.382 531.969 374.046 532.489 374.926 532.489C375.406 532.489 375.926 532.281 376.23 531.897V532.393H377.182V529.905C377.182 528.857 376.502 528.161 375.406 528.161ZM375.142 531.777C374.678 531.777 374.334 531.529 374.334 531.137C374.334 530.745 374.726 530.473 375.214 530.473C375.582 530.473 375.926 530.529 376.23 530.633V531.097C376.118 531.537 375.614 531.777 375.142 531.777ZM378.735 527.633C379.039 527.633 379.287 527.369 379.287 527.073C379.287 526.777 379.039 526.521 378.735 526.521C378.423 526.521 378.175 526.777 378.175 527.073C378.175 527.369 378.423 527.633 378.735 527.633ZM378.239 532.393H379.215V528.257H378.239V532.393ZM383.373 528.257V528.873C383.077 528.433 382.541 528.161 381.957 528.161C380.885 528.161 380.093 528.969 380.093 530.121C380.093 531.273 380.885 532.089 381.957 532.089C382.549 532.089 383.045 531.825 383.373 531.385V531.921C383.373 532.545 382.861 532.937 382.045 532.937C381.557 532.937 381.061 532.769 380.773 532.505L380.413 533.217C380.821 533.537 381.477 533.769 382.189 533.769C383.453 533.769 384.349 533.017 384.349 531.953V528.257H383.373ZM382.237 531.257C381.581 531.257 381.109 530.785 381.109 530.121C381.109 529.465 381.581 528.993 382.237 528.993C382.901 528.993 383.373 529.465 383.373 530.121C383.373 530.785 382.901 531.257 382.237 531.257ZM387.698 528.161C387.154 528.161 386.674 528.425 386.418 528.809V528.257H385.442V532.393H386.418V529.777C386.482 529.337 386.906 528.993 387.418 528.993C387.93 528.993 388.29 529.393 388.29 529.953V532.393H389.234V529.761C389.234 528.825 388.602 528.161 387.698 528.161ZM391.821 532.489C392.789 532.489 393.445 531.977 393.445 531.185C393.445 530.321 392.693 530.081 391.997 529.889C391.365 529.705 391.149 529.625 391.149 529.361C391.149 529.129 391.413 528.993 391.757 528.993C392.117 528.993 392.541 529.121 392.933 529.369L393.341 528.657C392.893 528.361 392.325 528.161 391.757 528.161C390.837 528.161 390.197 528.689 390.197 529.465C390.205 530.201 390.773 530.457 391.669 530.689C392.141 530.817 392.501 530.921 392.501 531.241C392.501 531.497 392.229 531.665 391.837 531.665C391.317 531.665 390.853 531.473 390.453 531.185L390.013 531.865C390.509 532.265 391.189 532.489 391.821 532.489Z" fill="white"/>
<path d="M743.028 489.988L726.771 489.077C726.771 489.077 735.351 481.154 735.893 474.596" stroke="black" stroke-miterlimit="10"/>
<path d="M635.823 358.936C635.823 358.936 729.842 345.002 776.806 391.904C823.77 438.805 751.518 479.514 727.133 488.895" stroke="black" stroke-miterlimit="10"/>
<path d="M323.331 414.83H344.103" stroke="#C4C4C4" stroke-width="4.5" stroke-linecap="round"/>
<path d="M323.331 437.143H361.263" stroke="#C4C4C4" stroke-width="4.5" stroke-linecap="round"/>
<path d="M323.331 448.072H361.263" stroke="#C4C4C4" stroke-width="4.5" stroke-linecap="round"/>
<path d="M376.617 437.143H391.971" stroke="#C4C4C4" stroke-width="4.5" stroke-linecap="round"/>
<path d="M323.331 426.214H401.002" stroke="#C4C4C4" stroke-width="4.5" stroke-linecap="round"/>
<path d="M353.135 414.375H391.971" stroke="#C4C4C4" stroke-width="4.5" stroke-linecap="round"/>
<path d="M323.994 360.625H325.918V351.694H324.384L321.706 353.488L322.473 354.84L323.994 353.891V360.625ZM327.882 360.625H329.793V355.061L332.562 360.105L335.318 355.061V360.625H337.242V351.694H335.318L332.562 356.738L329.793 351.694H327.882V360.625Z" fill="black"/>
<path d="M335.095 376.858C335.95 376.858 336.742 376.489 337.318 375.913L336.841 375.427C336.391 375.904 335.77 376.21 335.095 376.21C333.763 376.21 332.638 375.04 332.638 373.654C332.638 372.277 333.763 371.107 335.095 371.107C335.77 371.107 336.391 371.413 336.841 371.89L337.318 371.404C336.742 370.819 335.95 370.459 335.095 370.459C333.385 370.459 331.927 371.917 331.927 373.654C331.927 375.391 333.385 376.858 335.095 376.858ZM341.536 372.097V375.058C341.536 375.706 340.879 376.255 340.096 376.255C339.412 376.255 338.935 375.724 338.935 374.968V372.097H338.26V375.058C338.26 376.111 338.98 376.858 340.006 376.858C340.663 376.858 341.266 376.498 341.536 376.003V376.75H342.211V372.097H341.536ZM345.233 376.858C346.196 376.858 346.934 376.309 346.934 375.454C346.934 374.572 346.16 374.32 345.413 374.086C344.549 373.807 344.207 373.681 344.207 373.276C344.207 372.826 344.639 372.592 345.161 372.592C345.575 372.592 346.034 372.736 346.502 373.033L346.826 372.511C346.331 372.187 345.737 371.989 345.161 371.989C344.234 371.989 343.532 372.511 343.532 373.357C343.532 374.023 343.964 374.356 345.089 374.68C345.719 374.86 346.259 375.022 346.259 375.526C346.259 375.967 345.845 376.255 345.233 376.255C344.72 376.255 344.189 376.057 343.658 375.67L343.307 376.165C343.865 376.615 344.585 376.858 345.233 376.858ZM350.094 376.066C349.995 376.174 349.815 376.255 349.608 376.255C349.338 376.255 349.104 376.012 349.104 375.67V372.7H350.247V372.097H349.104V370.819H348.429V372.097H347.7V372.7H348.429V375.67C348.429 376.363 348.897 376.858 349.563 376.858C349.878 376.858 350.184 376.75 350.427 376.561L350.094 376.066ZM353.542 376.858C354.847 376.858 355.945 375.742 355.945 374.419C355.945 373.096 354.847 371.989 353.542 371.989C352.237 371.989 351.13 373.096 351.13 374.419C351.13 375.742 352.237 376.858 353.542 376.858ZM353.542 376.255C352.615 376.255 351.841 375.418 351.841 374.419C351.841 373.429 352.615 372.592 353.542 372.592C354.46 372.592 355.234 373.429 355.234 374.419C355.234 375.418 354.46 376.255 353.542 376.255ZM362.091 371.989C361.389 371.989 360.777 372.376 360.588 372.979C360.336 372.376 359.787 371.989 359.085 371.989C358.473 371.989 357.969 372.295 357.735 372.781V372.097H357.06V376.75H357.735V373.789C357.735 373.087 358.257 372.592 358.995 372.592C359.625 372.592 360.066 373.123 360.066 373.879V376.75H360.741V373.789C360.741 373.087 361.263 372.592 362.001 372.592C362.631 372.592 363.072 373.123 363.072 373.879V376.75H363.747V373.789C363.747 372.736 363.063 371.989 362.091 371.989ZM367.208 376.255C366.29 376.255 365.651 375.589 365.552 374.68H369.359C369.359 373.051 368.558 371.989 367.154 371.989C365.903 371.989 364.859 373.024 364.859 374.41C364.859 375.841 365.975 376.858 367.217 376.858C367.865 376.858 368.684 376.579 369.089 376.138L368.675 375.697C368.387 376.012 367.757 376.255 367.208 376.255ZM367.181 372.592C368.108 372.592 368.603 373.24 368.693 374.077H365.561C365.687 373.177 366.353 372.592 367.181 372.592ZM371.201 373.006V372.097H370.526V376.75H371.201V374.149C371.201 373.24 371.948 372.592 373.001 372.592V371.989C372.146 371.989 371.48 372.385 371.201 373.006Z" fill="#959595"/>
<path fill-rule="evenodd" clip-rule="evenodd" d="M324.685 369.75C322.939 369.75 321.524 371.177 321.524 372.937C321.524 374.698 322.939 376.125 324.685 376.125C326.431 376.125 327.846 374.698 327.846 372.937C327.846 371.177 326.431 369.75 324.685 369.75Z" fill="#5272C4"/>
<path fill-rule="evenodd" clip-rule="evenodd" d="M323.443 372.7L324.561 371.573C324.629 371.504 324.741 371.504 324.809 371.573L325.927 372.7C325.995 372.769 325.995 372.881 325.927 372.95C325.858 373.019 325.747 373.019 325.678 372.95L324.861 372.125L324.861 374.531L324.509 374.531L324.509 372.125L323.692 372.95C323.623 373.019 323.512 373.019 323.443 372.95C323.375 372.881 323.375 372.769 323.443 372.7Z" fill="white"/>
<path d="M405.661 376.849C407.101 376.849 407.839 376.048 407.839 375.067C407.839 373.978 406.993 373.555 405.814 373.276C404.761 373.024 404.149 372.799 404.149 372.16C404.149 371.593 404.707 371.089 405.472 371.089C406.12 371.089 406.732 371.386 407.245 371.881L407.677 371.332C407.11 370.81 406.426 370.45 405.508 370.45C404.32 370.45 403.438 371.224 403.438 372.214C403.438 373.285 404.221 373.672 405.463 373.96C406.543 374.212 407.128 374.473 407.128 375.13C407.128 375.688 406.642 376.21 405.688 376.21C404.824 376.21 404.185 375.841 403.663 375.319L403.222 375.868C403.843 376.48 404.644 376.849 405.661 376.849ZM411.442 371.989C410.695 371.989 410.101 372.358 409.75 372.97V372.097H409.075V378.298H409.75V375.877C410.101 376.489 410.695 376.858 411.442 376.858C412.666 376.858 413.584 375.85 413.584 374.419C413.584 372.997 412.666 371.989 411.442 371.989ZM411.316 376.255C410.398 376.255 409.75 375.49 409.75 374.419C409.75 373.348 410.398 372.592 411.316 372.592C412.225 372.592 412.873 373.348 412.873 374.419C412.873 375.49 412.225 376.255 411.316 376.255ZM416.848 376.255C415.93 376.255 415.291 375.589 415.192 374.68H418.999C418.999 373.051 418.198 371.989 416.794 371.989C415.543 371.989 414.499 373.024 414.499 374.41C414.499 375.841 415.615 376.858 416.857 376.858C417.505 376.858 418.324 376.579 418.729 376.138L418.315 375.697C418.027 376.012 417.397 376.255 416.848 376.255ZM416.821 372.592C417.748 372.592 418.243 373.24 418.333 374.077H415.201C415.327 373.177 415.993 372.592 416.821 372.592ZM422.318 371.989C421.661 371.989 421.058 372.349 420.788 372.844V372.097H420.113V376.75H420.788V373.789C420.788 373.141 421.445 372.592 422.228 372.592C422.912 372.592 423.389 373.123 423.389 373.879V376.75H424.064V373.789C424.064 372.736 423.344 371.989 422.318 371.989ZM429.066 370.459V372.97C428.715 372.358 428.121 371.989 427.374 371.989C426.15 371.989 425.232 372.997 425.232 374.419C425.232 375.85 426.15 376.858 427.374 376.858C428.121 376.858 428.715 376.489 429.066 375.877V376.75H429.741V370.459H429.066ZM427.5 376.255C426.591 376.255 425.943 375.49 425.943 374.419C425.943 373.348 426.591 372.592 427.5 372.592C428.418 372.592 429.066 373.348 429.066 374.419C429.066 375.49 428.418 376.255 427.5 376.255Z" fill="#959595"/>
<path d="M393.446 360.625H400.193V358.896H396.41L398.035 357.635C399.595 356.504 400.115 355.581 400.115 354.385C400.115 352.708 398.737 351.538 396.839 351.538C395.396 351.538 394.265 352.162 393.381 353.28L394.603 354.463C395.253 353.722 395.916 353.28 396.787 353.28C397.515 353.28 398.139 353.722 398.139 354.463C398.139 355.087 397.801 355.672 396.735 356.517L393.446 359.065V360.625ZM405.683 360.625H407.607V358.805H408.79V357.193H407.607V351.707H405.28L401.146 357.323L401.328 358.805H405.683V360.625ZM403.161 357.193L405.683 353.735V357.193H403.161ZM411.162 360.781C411.799 360.781 412.319 360.235 412.319 359.572C412.319 358.961 411.799 358.415 411.162 358.415C410.486 358.415 409.953 358.961 409.953 359.572C409.953 360.235 410.486 360.781 411.162 360.781ZM413.593 360.625H420.34V358.896H416.557L418.182 357.635C419.742 356.504 420.262 355.581 420.262 354.385C420.262 352.708 418.884 351.538 416.986 351.538C415.543 351.538 414.412 352.162 413.528 353.28L414.75 354.463C415.4 353.722 416.063 353.28 416.934 353.28C417.662 353.28 418.286 353.722 418.286 354.463C418.286 355.087 417.948 355.672 416.882 356.517L413.593 359.065V360.625ZM424.894 360.794C426.974 360.794 428.339 359.676 428.339 358.129C428.339 356.946 427.442 356.257 426.467 356.036C427.442 355.75 428.144 355.009 428.144 353.982C428.144 352.565 426.883 351.538 424.868 351.538C423.282 351.538 422.216 352.227 421.475 353.124L422.58 354.294C423.178 353.67 423.841 353.254 424.686 353.254C425.57 353.254 426.181 353.67 426.181 354.32C426.181 354.957 425.596 355.321 424.621 355.321L423.594 355.308V356.946H424.621C425.83 356.933 426.363 357.284 426.363 357.973C426.363 358.61 425.791 359.065 424.803 359.065C423.906 359.065 423.061 358.688 422.437 358.012L421.306 359.286C422.06 360.157 423.282 360.794 424.894 360.794ZM429.814 360.625H431.725V355.061L434.494 360.105L437.25 355.061V360.625H439.174V351.694H437.25L434.494 356.738L431.725 351.694H429.814V360.625Z" fill="black"/>
<path fill-rule="evenodd" clip-rule="evenodd" d="M396.035 369.75C394.289 369.75 392.874 371.177 392.874 372.937C392.874 374.698 394.289 376.125 396.035 376.125C397.781 376.125 399.196 374.698 399.196 372.937C399.196 371.177 397.781 369.75 396.035 369.75Z" fill="#5272C4"/>
<path fill-rule="evenodd" clip-rule="evenodd" d="M394.793 372.7L395.91 371.573C395.979 371.504 396.09 371.504 396.159 371.573L397.276 372.7C397.345 372.769 397.345 372.881 397.276 372.95C397.208 373.019 397.097 373.019 397.028 372.95L396.21 372.125L396.21 374.531L395.859 374.531L395.859 372.125L395.041 372.95C394.973 373.019 394.861 373.019 394.793 372.95C394.724 372.881 394.724 372.769 394.793 372.7Z" fill="white"/>
<path d="M486.882 372.547C486.882 371.386 485.883 370.567 484.605 370.567H482.094V376.75H482.796V374.527H484.434L486 376.75H486.801L485.199 374.464C486.18 374.257 486.882 373.519 486.882 372.547ZM482.796 371.233H484.479C485.487 371.233 486.171 371.719 486.171 372.547C486.171 373.375 485.487 373.861 484.479 373.861H482.796V371.233ZM490.018 376.255C489.1 376.255 488.461 375.589 488.362 374.68H492.169C492.169 373.051 491.368 371.989 489.964 371.989C488.713 371.989 487.669 373.024 487.669 374.41C487.669 375.841 488.785 376.858 490.027 376.858C490.675 376.858 491.494 376.579 491.899 376.138L491.485 375.697C491.197 376.012 490.567 376.255 490.018 376.255ZM489.991 372.592C490.918 372.592 491.413 373.24 491.503 374.077H488.371C488.497 373.177 489.163 372.592 489.991 372.592ZM494.92 376.858C495.883 376.858 496.621 376.309 496.621 375.454C496.621 374.572 495.847 374.32 495.1 374.086C494.236 373.807 493.894 373.681 493.894 373.276C493.894 372.826 494.326 372.592 494.848 372.592C495.262 372.592 495.721 372.736 496.189 373.033L496.513 372.511C496.018 372.187 495.424 371.989 494.848 371.989C493.921 371.989 493.219 372.511 493.219 373.357C493.219 374.023 493.651 374.356 494.776 374.68C495.406 374.86 495.946 375.022 495.946 375.526C495.946 375.967 495.532 376.255 494.92 376.255C494.407 376.255 493.876 376.057 493.345 375.67L492.994 376.165C493.552 376.615 494.272 376.858 494.92 376.858ZM500.168 371.989C499.421 371.989 498.827 372.358 498.476 372.97V372.097H497.801V378.298H498.476V375.877C498.827 376.489 499.421 376.858 500.168 376.858C501.392 376.858 502.31 375.85 502.31 374.419C502.31 372.997 501.392 371.989 500.168 371.989ZM500.042 376.255C499.124 376.255 498.476 375.49 498.476 374.419C498.476 373.348 499.124 372.592 500.042 372.592C500.951 372.592 501.599 373.348 501.599 374.419C501.599 375.49 500.951 376.255 500.042 376.255ZM505.637 376.858C506.942 376.858 508.04 375.742 508.04 374.419C508.04 373.096 506.942 371.989 505.637 371.989C504.332 371.989 503.225 373.096 503.225 374.419C503.225 375.742 504.332 376.858 505.637 376.858ZM505.637 376.255C504.71 376.255 503.936 375.418 503.936 374.419C503.936 373.429 504.71 372.592 505.637 372.592C506.555 372.592 507.329 373.429 507.329 374.419C507.329 375.418 506.555 376.255 505.637 376.255ZM511.369 371.989C510.712 371.989 510.109 372.349 509.839 372.844V372.097H509.164V376.75H509.839V373.789C509.839 373.141 510.496 372.592 511.279 372.592C511.963 372.592 512.44 373.123 512.44 373.879V376.75H513.115V373.789C513.115 372.736 512.395 371.989 511.369 371.989ZM516.128 376.858C517.091 376.858 517.829 376.309 517.829 375.454C517.829 374.572 517.055 374.32 516.308 374.086C515.444 373.807 515.102 373.681 515.102 373.276C515.102 372.826 515.534 372.592 516.056 372.592C516.47 372.592 516.929 372.736 517.397 373.033L517.721 372.511C517.226 372.187 516.632 371.989 516.056 371.989C515.129 371.989 514.427 372.511 514.427 373.357C514.427 374.023 514.859 374.356 515.984 374.68C516.614 374.86 517.154 375.022 517.154 375.526C517.154 375.967 516.74 376.255 516.128 376.255C515.615 376.255 515.084 376.057 514.553 375.67L514.202 376.165C514.76 376.615 515.48 376.858 516.128 376.858ZM521.043 376.255C520.125 376.255 519.486 375.589 519.387 374.68H523.194C523.194 373.051 522.393 371.989 520.989 371.989C519.738 371.989 518.694 373.024 518.694 374.41C518.694 375.841 519.81 376.858 521.052 376.858C521.7 376.858 522.519 376.579 522.924 376.138L522.51 375.697C522.222 376.012 521.592 376.255 521.043 376.255ZM521.016 372.592C521.943 372.592 522.438 373.24 522.528 374.077H519.396C519.522 373.177 520.188 372.592 521.016 372.592ZM531.724 372.547C531.724 371.386 530.725 370.567 529.447 370.567H526.936V376.75H527.638V374.527H529.276L530.842 376.75H531.643L530.041 374.464C531.022 374.257 531.724 373.519 531.724 372.547ZM527.638 371.233H529.321C530.329 371.233 531.013 371.719 531.013 372.547C531.013 373.375 530.329 373.861 529.321 373.861H527.638V371.233ZM534.652 371.989C534.202 371.989 533.644 372.106 532.978 372.439L533.248 372.988C533.671 372.772 534.139 372.565 534.607 372.565C535.615 372.565 535.867 373.285 535.867 373.915V374.086C535.39 373.933 534.859 373.825 534.355 373.825C533.356 373.825 532.528 374.446 532.528 375.373C532.528 376.291 533.248 376.858 534.229 376.858C534.841 376.858 535.534 376.57 535.867 376.021V376.75H536.542V373.915C536.542 372.79 535.921 371.989 534.652 371.989ZM534.346 376.264C533.689 376.264 533.185 375.922 533.185 375.346C533.185 374.788 533.77 374.392 534.463 374.392C534.967 374.392 535.444 374.464 535.867 374.581V375.292C535.687 375.949 534.958 376.264 534.346 376.264ZM539.965 376.066C539.866 376.174 539.686 376.255 539.479 376.255C539.209 376.255 538.975 376.012 538.975 375.67V372.7H540.118V372.097H538.975V370.819H538.3V372.097H537.571V372.7H538.3V375.67C538.3 376.363 538.768 376.858 539.434 376.858C539.749 376.858 540.055 376.75 540.298 376.561L539.965 376.066ZM543.35 376.255C542.432 376.255 541.793 375.589 541.694 374.68H545.501C545.501 373.051 544.7 371.989 543.296 371.989C542.045 371.989 541.001 373.024 541.001 374.41C541.001 375.841 542.117 376.858 543.359 376.858C544.007 376.858 544.826 376.579 545.231 376.138L544.817 375.697C544.529 376.012 543.899 376.255 543.35 376.255ZM543.323 372.592C544.25 372.592 544.745 373.24 544.835 374.077H541.703C541.829 373.177 542.495 372.592 543.323 372.592Z" fill="#959595"/>
<path d="M473.918 360.625H475.842V351.694H474.308L471.63 353.488L472.397 354.84L473.918 353.891V360.625ZM479.314 360.625H481.238V351.694H479.704L477.026 353.488L477.793 354.84L479.314 353.891V360.625ZM484.151 360.781C484.788 360.781 485.308 360.235 485.308 359.572C485.308 358.961 484.788 358.415 484.151 358.415C483.475 358.415 482.942 358.961 482.942 359.572C482.942 360.235 483.475 360.781 484.151 360.781ZM487.492 360.625H489.663L493.264 353.137V351.694H486.621V353.423H491.041L487.492 360.625ZM498.445 360.781C500.798 360.781 502.462 358.87 502.462 356.153C502.462 353.449 500.798 351.538 498.445 351.538C496.092 351.538 494.441 353.449 494.441 356.153C494.441 358.87 496.092 360.781 498.445 360.781ZM498.445 359.039C497.249 359.039 496.404 357.83 496.404 356.153C496.404 354.476 497.249 353.28 498.445 353.28C499.654 353.28 500.486 354.476 500.486 356.153C500.486 357.83 499.654 359.039 498.445 359.039ZM505.738 356.179C507.064 356.179 507.974 355.178 507.974 353.891C507.974 352.63 507.103 351.603 505.751 351.603C504.412 351.603 503.515 352.617 503.515 353.904C503.515 355.178 504.412 356.179 505.738 356.179ZM504.685 360.625H506.063L512.277 351.694H510.899L504.685 360.625ZM505.751 355.061C505.218 355.061 504.802 354.593 504.802 353.891C504.802 353.189 505.192 352.734 505.738 352.734C506.297 352.734 506.7 353.202 506.7 353.891C506.7 354.606 506.297 355.061 505.751 355.061ZM511.198 360.768C512.498 360.768 513.421 359.767 513.421 358.48C513.421 357.219 512.537 356.192 511.198 356.192C509.872 356.192 508.962 357.206 508.962 358.48C508.962 359.754 509.859 360.768 511.198 360.768ZM511.198 359.637C510.639 359.637 510.236 359.169 510.236 358.48C510.236 357.765 510.626 357.31 511.198 357.31C511.731 357.31 512.147 357.778 512.147 358.48C512.147 359.182 511.757 359.637 511.198 359.637Z" fill="black"/>
<path fill-rule="evenodd" clip-rule="evenodd" d="M474.609 369.75C472.864 369.75 471.448 371.177 471.448 372.937C471.448 374.698 472.864 376.125 474.609 376.125C476.355 376.125 477.771 374.698 477.771 372.937C477.771 371.177 476.355 369.75 474.609 369.75Z" fill="#5272C4"/>
<path fill-rule="evenodd" clip-rule="evenodd" d="M473.367 372.7L474.485 371.573C474.554 371.504 474.665 371.504 474.733 371.573L475.851 372.7C475.92 372.769 475.92 372.881 475.851 372.95C475.782 373.019 475.671 373.019 475.603 372.95L474.785 372.125L474.785 374.531L474.434 374.531L474.434 372.125L473.616 372.95C473.547 373.019 473.436 373.019 473.367 372.95C473.299 372.881 473.299 372.769 473.367 372.7Z" fill="white"/>
<path d="M578.867 376.75H580.955C582.917 376.75 584.303 375.463 584.303 373.654C584.303 371.845 582.917 370.567 580.955 370.567H578.867V376.75ZM579.569 376.111V371.206H580.955C582.503 371.206 583.592 372.223 583.592 373.654C583.592 375.094 582.503 376.111 580.955 376.111H579.569ZM585.893 371.251C586.136 371.251 586.334 371.044 586.334 370.801C586.334 370.567 586.136 370.36 585.893 370.36C585.641 370.36 585.443 370.567 585.443 370.801C585.443 371.044 585.641 371.251 585.893 371.251ZM585.551 376.75H586.226V372.097H585.551V376.75ZM589.229 376.858C590.192 376.858 590.93 376.309 590.93 375.454C590.93 374.572 590.156 374.32 589.409 374.086C588.545 373.807 588.203 373.681 588.203 373.276C588.203 372.826 588.635 372.592 589.157 372.592C589.571 372.592 590.03 372.736 590.498 373.033L590.822 372.511C590.327 372.187 589.733 371.989 589.157 371.989C588.23 371.989 587.528 372.511 587.528 373.357C587.528 374.023 587.96 374.356 589.085 374.68C589.715 374.86 590.255 375.022 590.255 375.526C590.255 375.967 589.841 376.255 589.229 376.255C588.716 376.255 588.185 376.057 587.654 375.67L587.303 376.165C587.861 376.615 588.581 376.858 589.229 376.858ZM594.207 376.858C594.855 376.858 595.449 376.588 595.89 376.147L595.422 375.688C595.107 376.039 594.675 376.255 594.207 376.255C593.28 376.255 592.506 375.418 592.506 374.419C592.506 373.429 593.28 372.592 594.207 372.592C594.666 372.592 595.089 372.799 595.395 373.132L595.863 372.673C595.422 372.25 594.837 371.989 594.207 371.989C592.902 371.989 591.795 373.096 591.795 374.419C591.795 375.742 592.902 376.858 594.207 376.858ZM598.988 376.858C600.293 376.858 601.391 375.742 601.391 374.419C601.391 373.096 600.293 371.989 598.988 371.989C597.683 371.989 596.576 373.096 596.576 374.419C596.576 375.742 597.683 376.858 598.988 376.858ZM598.988 376.255C598.061 376.255 597.287 375.418 597.287 374.419C597.287 373.429 598.061 372.592 598.988 372.592C599.906 372.592 600.68 373.429 600.68 374.419C600.68 375.418 599.906 376.255 598.988 376.255ZM603.869 376.75H604.517L606.47 372.097H605.714L604.193 375.958L602.645 372.097H601.889L603.869 376.75ZM609.182 376.255C608.264 376.255 607.625 375.589 607.526 374.68H611.333C611.333 373.051 610.532 371.989 609.128 371.989C607.877 371.989 606.833 373.024 606.833 374.41C606.833 375.841 607.949 376.858 609.191 376.858C609.839 376.858 610.658 376.579 611.063 376.138L610.649 375.697C610.361 376.012 609.731 376.255 609.182 376.255ZM609.155 372.592C610.082 372.592 610.577 373.24 610.667 374.077H607.535C607.661 373.177 608.327 372.592 609.155 372.592ZM613.175 373.006V372.097H612.5V376.75H613.175V374.149C613.175 373.24 613.922 372.592 614.975 372.592V371.989C614.12 371.989 613.454 372.385 613.175 373.006ZM616.602 378.37C617.241 378.361 617.691 378.064 618.015 377.272L620.139 372.097H619.41L617.871 375.967L616.242 372.097H615.495L617.52 376.768L617.25 377.344C617.07 377.659 616.872 377.758 616.575 377.758C616.377 377.758 616.188 377.722 616.026 377.641L615.864 378.217C616.08 378.316 616.332 378.37 616.602 378.37ZM626.806 376.858C627.661 376.858 628.453 376.489 629.029 375.913L628.552 375.427C628.102 375.904 627.481 376.21 626.806 376.21C625.474 376.21 624.349 375.04 624.349 373.654C624.349 372.277 625.474 371.107 626.806 371.107C627.481 371.107 628.102 371.413 628.552 371.89L629.029 371.404C628.453 370.819 627.661 370.459 626.806 370.459C625.096 370.459 623.638 371.917 623.638 373.654C623.638 375.391 625.096 376.858 626.806 376.858ZM632.186 371.989C631.529 371.989 630.926 372.349 630.656 372.844V370.459H629.981V376.75H630.656V373.789C630.656 373.141 631.313 372.592 632.096 372.592C632.78 372.592 633.257 373.123 633.257 373.879V376.75H633.932V373.789C633.932 372.736 633.212 371.989 632.186 371.989ZM637.458 376.858C638.763 376.858 639.861 375.742 639.861 374.419C639.861 373.096 638.763 371.989 637.458 371.989C636.153 371.989 635.046 373.096 635.046 374.419C635.046 375.742 636.153 376.858 637.458 376.858ZM637.458 376.255C636.531 376.255 635.757 375.418 635.757 374.419C635.757 373.429 636.531 372.592 637.458 372.592C638.376 372.592 639.15 373.429 639.15 374.419C639.15 375.418 638.376 376.255 637.458 376.255ZM641.309 371.251C641.552 371.251 641.75 371.044 641.75 370.801C641.75 370.567 641.552 370.36 641.309 370.36C641.057 370.36 640.859 370.567 640.859 370.801C640.859 371.044 641.057 371.251 641.309 371.251ZM640.967 376.75H641.642V372.097H640.967V376.75ZM645.157 376.858C645.805 376.858 646.399 376.588 646.84 376.147L646.372 375.688C646.057 376.039 645.625 376.255 645.157 376.255C644.23 376.255 643.456 375.418 643.456 374.419C643.456 373.429 644.23 372.592 645.157 372.592C645.616 372.592 646.039 372.799 646.345 373.132L646.813 372.673C646.372 372.25 645.787 371.989 645.157 371.989C643.852 371.989 642.745 373.096 642.745 374.419C642.745 375.742 643.852 376.858 645.157 376.858ZM649.972 376.255C649.054 376.255 648.415 375.589 648.316 374.68H652.123C652.123 373.051 651.322 371.989 649.918 371.989C648.667 371.989 647.623 373.024 647.623 374.41C647.623 375.841 648.739 376.858 649.981 376.858C650.629 376.858 651.448 376.579 651.853 376.138L651.439 375.697C651.151 376.012 650.521 376.255 649.972 376.255ZM649.945 372.592C650.872 372.592 651.367 373.24 651.457 374.077H648.325C648.451 373.177 649.117 372.592 649.945 372.592ZM654.874 376.858C655.837 376.858 656.575 376.309 656.575 375.454C656.575 374.572 655.801 374.32 655.054 374.086C654.19 373.807 653.848 373.681 653.848 373.276C653.848 372.826 654.28 372.592 654.802 372.592C655.216 372.592 655.675 372.736 656.143 373.033L656.467 372.511C655.972 372.187 655.378 371.989 654.802 371.989C653.875 371.989 653.173 372.511 653.173 373.357C653.173 374.023 653.605 374.356 654.73 374.68C655.36 374.86 655.9 375.022 655.9 375.526C655.9 375.967 655.486 376.255 654.874 376.255C654.361 376.255 653.83 376.057 653.299 375.67L652.948 376.165C653.506 376.615 654.226 376.858 654.874 376.858Z" fill="#959595"/>
<path d="M572.948 360.625H574.872V358.805H576.055V357.193H574.872V351.707H572.545L568.411 357.323L568.593 358.805H572.948V360.625ZM570.426 357.193L572.948 353.735V357.193H570.426ZM577.088 360.625H583.835V358.896H580.052L581.677 357.635C583.237 356.504 583.757 355.581 583.757 354.385C583.757 352.708 582.379 351.538 580.481 351.538C579.038 351.538 577.907 352.162 577.023 353.28L578.245 354.463C578.895 353.722 579.558 353.28 580.429 353.28C581.157 353.28 581.781 353.722 581.781 354.463C581.781 355.087 581.443 355.672 580.377 356.517L577.088 359.065V360.625ZM586.374 360.781C587.011 360.781 587.531 360.235 587.531 359.572C587.531 358.961 587.011 358.415 586.374 358.415C585.698 358.415 585.165 358.961 585.165 359.572C585.165 360.235 585.698 360.781 586.374 360.781ZM590.704 360.625H592.628V351.694H591.094L588.416 353.488L589.183 354.84L590.704 353.891V360.625ZM598.218 360.781C600.571 360.781 602.235 358.87 602.235 356.153C602.235 353.449 600.571 351.538 598.218 351.538C595.865 351.538 594.214 353.449 594.214 356.153C594.214 358.87 595.865 360.781 598.218 360.781ZM598.218 359.039C597.022 359.039 596.177 357.83 596.177 356.153C596.177 354.476 597.022 353.28 598.218 353.28C599.427 353.28 600.259 354.476 600.259 356.153C600.259 357.83 599.427 359.039 598.218 359.039ZM605.512 356.179C606.838 356.179 607.748 355.178 607.748 353.891C607.748 352.63 606.877 351.603 605.525 351.603C604.186 351.603 603.289 352.617 603.289 353.904C603.289 355.178 604.186 356.179 605.512 356.179ZM604.459 360.625H605.837L612.051 351.694H610.673L604.459 360.625ZM605.525 355.061C604.992 355.061 604.576 354.593 604.576 353.891C604.576 353.189 604.966 352.734 605.512 352.734C606.071 352.734 606.474 353.202 606.474 353.891C606.474 354.606 606.071 355.061 605.525 355.061ZM610.972 360.768C612.272 360.768 613.195 359.767 613.195 358.48C613.195 357.219 612.311 356.192 610.972 356.192C609.646 356.192 608.736 357.206 608.736 358.48C608.736 359.754 609.633 360.768 610.972 360.768ZM610.972 359.637C610.413 359.637 610.01 359.169 610.01 358.48C610.01 357.765 610.4 357.31 610.972 357.31C611.505 357.31 611.921 357.778 611.921 358.48C611.921 359.182 611.531 359.637 610.972 359.637Z" fill="black"/>
<path fill-rule="evenodd" clip-rule="evenodd" d="M571.247 369.75C569.502 369.75 568.086 371.177 568.086 372.937C568.086 374.698 569.502 376.125 571.247 376.125C572.993 376.125 574.408 374.698 574.408 372.937C574.408 371.177 572.993 369.75 571.247 369.75Z" fill="#5272C4"/>
<path fill-rule="evenodd" clip-rule="evenodd" d="M570.005 372.7L571.123 371.573C571.192 371.504 571.303 371.504 571.371 371.573L572.489 372.7C572.558 372.769 572.558 372.881 572.489 372.95C572.42 373.019 572.309 373.019 572.241 372.95L571.423 372.125L571.423 374.531L571.072 374.531L571.072 372.125L570.254 372.95C570.185 373.019 570.074 373.019 570.005 372.95C569.937 372.881 569.937 372.769 570.005 372.7Z" fill="white"/>
<path d="M609.632 395.25H616.857" stroke="#C4C4C4" stroke-width="3.5" stroke-linecap="round"/>
<path d="M667.434 395.25H674.659" stroke="#C4C4C4" stroke-width="3.5" stroke-linecap="round"/>
<path d="M609.632 400.714H622.276" stroke="#C4C4C4" stroke-width="3.5" stroke-linecap="round"/>
<path d="M667.434 400.714H680.078" stroke="#C4C4C4" stroke-width="3.5" stroke-linecap="round"/>
<rect x="592.472" y="393.428" width="9.03158" height="9.10714" fill="#FAC8C8"/>
<rect x="650.274" y="393.428" width="9.03158" height="9.10714" fill="#5171C4"/>
<path d="M492.221 419.384L519.316 417.107H562.216L680.078 419.384" stroke="#E8E8E8"/>
<path d="M492.221 455.812L519.316 453.536H562.216L680.078 455.812" stroke="#E8E8E8"/>
<path d="M492.221 495.884L519.316 493.607H562.216L680.078 495.884" stroke="#E8E8E8"/>
<path d="M492.221 538.687L519.316 536.411H562.216L680.078 538.687" stroke="#E8E8E8"/>
<rect x="501.253" y="447.161" width="27.0947" height="90.1607" rx="2" fill="#5171C4"/>
<rect x="595.181" y="417.107" width="27.0947" height="120.214" rx="2" fill="#5171C4"/>
<rect x="548.217" y="463.553" width="27.0947" height="73.7679" rx="2" fill="#5171C4"/>
<rect x="641.242" y="428.947" width="27.0947" height="108.375" rx="2" fill="#5171C4"/>
</svg>
